<?xml version="1.0" encoding="UTF-8"?>
<svg version="1.1" xmlns="http://www.w3.org/2000/svg" width="500" height="500">
<path d="M0 0 C165 0 330 0 500 0 C500 165 500 330 500 500 C335 500 170 500 0 500 C0 335 0 170 0 0 Z " fill="#FEFEFE" transform="translate(0,0)"/>
<path d="M0 0 C70.95 0 141.9 0 215 0 C215 1.98 215 3.96 215 6 C238.43 6 261.86 6 286 6 C286 44.94 286 83.88 286 124 C238.81 124 191.62 124 143 124 C143 132.25 143 140.5 143 149 C134.75 149 126.5 149 118 149 C118.33 213.02 118.66 277.04 119 343 C121.51582233 344.25791116 123.30798151 344.14205205 126.12109375 344.17578125 C127.13880859 344.19962891 128.15652344 344.22347656 129.20507812 344.24804688 C131.35591925 344.29093374 133.50702347 344.32222884 135.65820312 344.34179688 C137.18670898 344.38336914 137.18670898 344.38336914 138.74609375 344.42578125 C139.68122803 344.44036377 140.6163623 344.45494629 141.57983398 344.4699707 C144 345 144 345 145.82373047 346.89453125 C147.28434574 349.50896588 147.15459173 350.75756097 146.6875 353.6875 C146.02686125 358.52021608 145.92136136 363.12440459 146 368 C150.50247745 370.26397993 154.75734475 370.28097592 159.68516541 370.25396729 C160.55908434 370.25708727 161.43300327 370.26020725 162.3334046 370.26342177 C165.26131949 370.27139807 168.18902693 370.2650795 171.11694336 370.25878906 C173.21629457 370.2614991 175.31564483 370.26506011 177.41499329 370.26940918 C183.11742122 370.27853441 188.81977686 370.2749882 194.52220607 370.26865101 C200.48783359 370.26359107 206.45345488 370.26828251 212.41908264 370.27142334 C222.43882357 370.27506328 232.45853503 370.27026344 242.47827148 370.26074219 C254.06339981 370.24986057 265.64845773 370.253381 277.23358434 370.264395 C287.1776518 370.27347061 297.12169805 370.27475171 307.0657683 370.26951766 C313.0060301 370.2663991 318.9462588 370.26598548 324.88651848 370.27259064 C330.47201648 370.27836731 336.05742371 370.2743612 341.64291191 370.26280212 C343.69317982 370.26015715 345.74345537 370.26091786 347.79372025 370.26532745 C350.59186701 370.27079074 353.38972273 370.26393909 356.18785095 370.25396729 C357.40551388 370.26065945 357.40551388 370.26065945 358.64777607 370.26748681 C363.15468628 370.23632484 366.75313621 369.70642826 371 368 C371 370.97 371 373.94 371 377 C366.71 377 362.42 377 358 377 C358 417.59 358 458.18 358 500 C239.86 500 121.72 500 0 500 C0 335 0 170 0 0 Z " fill="#FDA400" transform="translate(0,0)"/>
<path d="M0 0 C0.33 0 0.66 0 1 0 C1 164.34 1 328.68 1 498 C-45.86 498 -92.72 498 -141 498 C-141 457.41 -141 416.82 -141 375 C-136.71 375 -132.42 375 -128 375 C-128 358.17 -128 341.34 -128 324 C-132.29 324 -136.58 324 -141 324 C-141 274.17 -141 224.34 -141 173 C-136.71 173 -132.42 173 -128 173 C-128 155.84 -128 138.68 -128 121 C-132.29 121 -136.58 121 -141 121 C-141 82.39 -141 43.78 -141 4 C-131.07292969 3.96261719 -121.14585937 3.92523438 -110.91796875 3.88671875 C-104.64256396 3.85645581 -98.36717792 3.82544177 -92.09179688 3.79101562 C-82.12330799 3.73647006 -72.15487121 3.6850601 -62.1862793 3.65356445 C-54.92704269 3.63061488 -47.6679421 3.59725117 -40.4088133 3.55129844 C-36.56393072 3.52732494 -32.71918318 3.50862333 -28.87422752 3.50238609 C-25.25690126 3.49635374 -21.63992072 3.47642176 -18.02272224 3.44572449 C-16.05882915 3.43270637 -14.09485541 3.43451925 -12.13092041 3.4367218 C-10.96564316 3.42418365 -9.80036591 3.41164551 -8.59977722 3.39872742 C-7.58488315 3.39411845 -6.56998907 3.38950949 -5.52434063 3.38476086 C-2.62505096 2.94285014 -1.82300155 2.21776611 0 0 Z " fill="#7F007F" transform="translate(499,2)"/>
<path d="M0 0 C4 2 4 2 5 3 C38.165 3.495 38.165 3.495 72 4 C72 165.04 72 326.08 72 492 C119.19 492 166.38 492 215 492 C215 493.98 215 495.96 215 498 C144.05 498 73.1 498 0 498 C0 333.66 0 169.32 0 0 Z " fill="#FE0000" transform="translate(0,2)"/>
<path d="M0 0 C23.43 0 46.86 0 71 0 C71 163.02 71 326.04 71 494 C47.57 494 24.14 494 0 494 C0 453.41 0 412.82 0 371 C4.29 371 8.58 371 13 371 C13 354.17 13 337.34 13 320 C8.71 320 4.42 320 0 320 C0 270.17 0 220.34 0 169 C4.29 169 8.58 169 13 169 C13 151.84 13 134.68 13 117 C8.71 117 4.42 117 0 117 C0 78.39 0 39.78 0 0 Z " fill="#0101FE" transform="translate(358,6)"/>
<path d="M0 0 C45.54 0 91.08 0 138 0 C138 49.83 138 99.66 138 151 C92.46 151 46.92 151 0 151 C0 101.17 0 51.34 0 0 Z " fill="#0FFDFD" transform="translate(220,175)"/>
<path d="M0 0 C47.19 0 94.38 0 143 0 C143 40.59 143 81.18 143 123 C95.81 123 48.62 123 0 123 C0 82.41 0 41.82 0 0 Z " fill="#0FFDFD" transform="translate(215,377)"/>
<path d="M0 0 C47.69562655 -0.09616054 95.31006684 0.24451591 143 1 C143 39.94 143 78.88 143 119 C95.81 119 48.62 119 0 119 C0 79.73 0 40.46 0 0 Z " fill="#FBFD01" transform="translate(143,5)"/>
<path d="M0 0 C94.05 0 188.1 0 285 0 C283 4 283 4 281 6 C278.5987072 6.24609566 278.5987072 6.24609566 275.52047729 6.24050903 C273.77462341 6.24463303 273.77462341 6.24463303 271.99349976 6.24884033 C270.06868271 6.2380545 270.06868271 6.2380545 268.10498047 6.22705078 C266.74509693 6.22648686 265.38521278 6.22680285 264.02532959 6.22793579 C260.32716584 6.22851106 256.62913107 6.21672877 252.93099737 6.20278788 C249.06859835 6.19030937 245.20619658 6.1891123 241.34378052 6.18673706 C234.02687967 6.1805138 226.71003839 6.16409158 219.3931638 6.14403808 C209.5079025 6.11753182 199.62262498 6.10671327 189.73733711 6.09503365 C174.1581801 6.07621155 158.5791488 6.03637155 143 6 C143 44.61 143 83.22 143 123 C147.29 123 151.58 123 156 123 C156 123.33 156 123.66 156 124 C127.95 124 99.9 124 71 124 C71 85.06 71 46.12 71 6 C47.57 6 24.14 6 0 6 C0 4.02 0 2.04 0 0 Z " fill="#10FEFE" transform="translate(215,0)"/>
<path d="M0 0 C21.78 0 43.56 0 66 0 C66 49.83 66 99.66 66 151 C44.22 151 22.44 151 0 151 C0 101.17 0 51.34 0 0 Z " fill="#00FC00" transform="translate(220,175)"/>
<path d="M0 0 C23.43 0 46.86 0 71 0 C71 40.59 71 81.18 71 123 C47.57 123 24.14 123 0 123 C0 82.41 0 41.82 0 0 Z " fill="#00FD00" transform="translate(215,377)"/>
<path d="M0 0 C23.76 0 47.52 0 72 0 C72 38.61 72 77.22 72 117 C48.24 117 24.48 117 0 117 C0 78.39 0 39.78 0 0 Z " fill="#FEFE00" transform="translate(143,377)"/>
<path d="M0 0 C23.43 0 46.86 0 71 0 C71 38.61 71 77.22 71 117 C47.57 117 24.14 117 0 117 C0 78.39 0 39.78 0 0 Z " fill="#00FE00" transform="translate(215,6)"/>
<path d="M0 0 C0 15.51 0 31.02 0 47 C-49.83 47 -99.66 47 -151 47 C-151 96.83 -151 146.66 -151 198 C-151.33 196.68 -151.66 195.36 -152 194 C-152.804375 193.855625 -153.60875 193.71125 -154.4375 193.5625 C-157 193 -157 193 -158 192 C-158.10097811 190.08549155 -158.13077235 188.1672131 -158.13371277 186.25004578 C-158.13797775 185.0007428 -158.14224274 183.75143982 -158.14663696 182.46427917 C-158.1462874 181.06692502 -158.14582583 179.66957088 -158.14526367 178.2722168 C-158.14825361 176.81059686 -158.15165575 175.34897771 -158.15544128 173.88735962 C-158.16430387 169.90586808 -158.16662038 165.92439801 -158.16725707 161.94289756 C-158.1682046 158.62282355 -158.17188122 155.3027546 -158.17542917 151.98268253 C-158.18358285 144.14999215 -158.18601263 136.31731327 -158.18530273 128.48461914 C-158.18470218 120.39863998 -158.19524745 112.31272759 -158.2110464 104.22676533 C-158.22411494 97.29170501 -158.2294869 90.35666651 -158.22884732 83.42159396 C-158.22859207 79.27655464 -158.23145819 75.13157456 -158.24202538 70.98654747 C-158.25169447 67.08697846 -158.25179374 63.18752548 -158.24450874 59.28795242 C-158.24346131 57.85606657 -158.24583519 56.42417355 -158.2518692 54.99230003 C-158.25956954 53.0385163 -158.25375381 51.08469319 -158.24723816 49.13090515 C-158.24778293 48.0371139 -158.24832769 46.94332266 -158.24888897 45.81638622 C-157.99797562 42.97709242 -157.62547664 41.32899486 -156 39 C-152.78202107 37.92734036 -150.44324504 37.86198015 -147.05854797 37.84178162 C-145.81754333 37.8319928 -144.5765387 37.82220398 -143.29792786 37.81211853 C-141.92038002 37.80621436 -140.54283179 37.80040392 -139.1652832 37.79467773 C-137.71658041 37.78509889 -136.26788041 37.77508881 -134.81918335 37.76467896 C-130.88355397 37.73762449 -126.94791259 37.71661786 -123.0122416 37.69667697 C-118.90024388 37.67482077 -114.78828318 37.64743029 -110.67631531 37.62062073 C-102.88846425 37.57068889 -95.10059265 37.52575188 -87.3127014 37.48259836 C-78.44699619 37.43323019 -69.5813281 37.3783105 -60.71565878 37.32291877 C-42.47714033 37.20909119 -24.23858683 37.10225383 -6 37 C-6.02618408 36.0212793 -6.05236816 35.04255859 -6.0793457 34.03417969 C-6.16997245 30.39655495 -6.22729276 26.75902954 -6.2746582 23.12060547 C-6.29977448 21.54719249 -6.33387472 19.97389588 -6.37719727 18.40087891 C-6.43798399 16.13675228 -6.46623582 13.87416978 -6.48828125 11.609375 C-6.51408768 10.90818542 -6.5398941 10.20699585 -6.56648254 9.48455811 C-6.56867336 5.65360745 -6.28481579 4.2856892 -3.53198242 1.52441406 C-1 0 -1 0 0 0 Z " fill="#DDDDDD" transform="translate(371,128)"/>
<path d="M0 0 C0 162.69 0 325.38 0 493 C-23.43 493 -46.86 493 -71 493 C-71 490.36 -71 487.72 -71 485 C-70.18789566 484.98969254 -69.37579132 484.97938507 -68.53907776 484.96876526 C-60.90163512 484.87096021 -53.26427678 484.76847052 -45.62696934 484.66066074 C-41.70015386 484.60539585 -37.77333099 484.5519703 -33.84643555 484.50268555 C-30.05979158 484.45509439 -26.27324084 484.40275376 -22.48670769 484.34705925 C-21.03898362 484.32661182 -19.59123397 484.30790276 -18.14346504 484.29092598 C-16.12235841 484.26693492 -14.1013339 484.23629925 -12.08032227 484.20532227 C-10.92782486 484.18977798 -9.77532745 484.1742337 -8.58790588 484.15821838 C-6.07029411 484.29117368 -6.07029411 484.29117368 -5 483 C-4.89879072 480.45420157 -4.86346927 477.93540117 -4.86971474 475.38899422 C-4.86777131 474.57831979 -4.86582788 473.76764537 -4.86382556 472.93240505 C-4.8584565 470.18068048 -4.86027517 467.42900528 -4.86196899 464.67727661 C-4.85955339 462.69864688 -4.8566919 460.72001765 -4.85341966 458.74138916 C-4.84563273 453.27668236 -4.84404546 447.81198811 -4.84336853 442.34727645 C-4.84153484 436.46442386 -4.8339315 430.58157872 -4.82688904 424.69873047 C-4.81534408 414.49646217 -4.80710996 404.29419554 -4.80076981 394.09192276 C-4.79101734 378.65840782 -4.77182442 363.22491219 -4.75046654 347.7914095 C-4.74193509 341.60301994 -4.73366926 335.41463002 -4.72536278 329.22624016 C-4.72397526 328.19485671 -4.72397526 328.19485671 -4.72255972 327.14263723 C-4.70055634 310.76550381 -4.68077106 294.38836802 -4.66210938 278.01123047 C-4.66087986 276.93595647 -4.66087986 276.93595647 -4.6596255 275.83895977 C-4.64053815 259.11179886 -4.62357733 242.38463807 -4.61126709 225.6574707 C-4.61073742 224.93799125 -4.61020775 224.21851179 -4.60966204 223.47722992 C-4.60541043 217.67792377 -4.60123411 211.87861757 -4.59707724 206.07931135 C-4.57989374 182.18863116 -4.55270121 158.29798002 -4.51391686 134.40732477 C-4.50845466 131.03590219 -4.50312173 127.66447941 -4.49787521 124.29305649 C-4.49684083 123.62949303 -4.49580645 122.96592957 -4.49474073 122.28225812 C-4.47738043 110.92436257 -4.47278841 99.56649212 -4.47130047 88.20858429 C-4.46919705 78.12552869 -4.45631802 68.04252394 -4.43482114 57.95949115 C-4.42274871 52.13441637 -4.4156695 46.3094426 -4.42153358 40.48435593 C-4.42679921 35.15864132 -4.41845426 29.83313341 -4.39897721 24.50745343 C-4.39437331 22.5740699 -4.39491045 20.64066638 -4.40092559 18.70728673 C-4.40833963 16.09216805 -4.39755774 13.47775545 -4.38196754 10.86268806 C-4.38853009 10.10076914 -4.39509263 9.33885022 -4.40185404 8.55384284 C-4.3438714 3.46859475 -4.3438714 3.46859475 -2.53862703 1.008582 C-1 0 -1 0 0 0 Z " fill="#630063" transform="translate(500,7)"/>
<path d="M0 0 C0.66 0 1.32 0 2 0 C2 160.38 2 320.76 2 486 C54.98611444 486.79918722 54.98611444 486.79918722 107.97343588 487.30332303 C111.79408189 487.32664026 115.61470561 487.35325224 119.43533325 487.37937927 C126.53389089 487.42748972 133.63246207 487.47302639 140.73104393 487.51740164 C148.8703748 487.56842617 157.00968341 487.62268051 165.1489923 487.67708123 C181.76597392 487.78807826 198.38297668 487.89542512 215 488 C215 489.98 215 491.96 215 494 C144.05 494 73.1 494 0 494 C0 330.98 0 167.96 0 0 Z " fill="#BC0000" transform="translate(0,6)"/>
<path d="M0 0 C3 1 3 1 4 3 C4.09670709 5.59491392 4.13194288 8.16290164 4.12304783 10.75805092 C4.12420167 11.57246635 4.12535552 12.38688178 4.12654433 13.22597647 C4.12921385 15.9843807 4.12468607 18.74272782 4.12025452 21.50112915 C4.12069015 23.48688438 4.12156491 25.47263955 4.12284368 27.45839441 C4.12509019 32.93803999 4.12106523 38.41766619 4.11606562 43.8973093 C4.11176354 49.79780644 4.11320737 55.6983024 4.1139679 61.59880066 C4.11452757 72.49695904 4.11062987 83.39511032 4.10462701 94.29326691 C4.09912994 104.35861141 4.0958975 114.42395382 4.09487724 124.48929977 C4.0948085 125.1559951 4.09473976 125.82269042 4.09466894 126.50958863 C4.09433062 129.89523231 4.09402923 133.280876 4.09374207 136.66651969 C4.09164021 160.66309818 4.08489885 184.65967337 4.07543945 208.65625 C4.0662589 231.97233055 4.05917339 255.28841019 4.05493164 278.60449219 C4.05480011 279.32287003 4.05466859 280.04124787 4.05453308 280.78139474 C4.05321459 287.99547085 4.05193877 295.20954698 4.05069422 302.42362311 C4.04815783 317.12025522 4.04533658 331.81688727 4.04234314 346.51351929 C4.04220585 347.18928488 4.04206856 347.86505047 4.04192711 348.56129381 C4.03272244 393.70753065 4.01664887 438.85376536 4 484 C25.78 484 47.56 484 70 484 C70 484.66 70 485.32 70 486 C61.16844684 486.02314123 52.33690406 486.0409242 43.50532722 486.05181217 C39.40474504 486.05703709 35.30418355 486.06412768 31.20361328 486.07543945 C27.24845043 486.08628218 23.29330752 486.09227979 19.33813095 486.09487724 C17.82701173 486.09672898 16.31589363 486.10034482 14.80478287 486.10573006 C12.69291042 486.11295886 10.58112105 486.11399016 8.46923828 486.11352539 C7.26566681 486.115746 6.06209534 486.11796661 4.822052 486.12025452 C2 486 2 486 0 485 C0 324.95 0 164.9 0 0 Z " fill="#DA0000" transform="translate(2,7)"/>
<path d="M0 0 C94.05 0 188.1 0 285 0 C283 4 283 4 281 6 C278.94982278 6.24839699 278.94982278 6.24839699 276.3654232 6.24609566 C275.38260695 6.25007775 274.39979069 6.25405985 273.38719213 6.25816262 C271.75589595 6.24942409 271.75589595 6.24942409 270.09164429 6.24050903 C268.36786369 6.24307231 268.36786369 6.24307231 266.60925925 6.24568737 C263.4098759 6.24842058 260.210653 6.2421377 257.01128864 6.23213124 C253.56480211 6.22351959 250.11832349 6.22641528 246.67182922 6.22793579 C240.69736316 6.2289861 234.72294067 6.22269435 228.74848557 6.21146011 C220.1103608 6.19522772 211.47225717 6.18999943 202.8341188 6.18748413 C188.82039016 6.18310347 174.80668476 6.16978432 160.79296875 6.15087891 C147.17741004 6.1325297 133.56185764 6.11836851 119.94628906 6.10986328 C119.10746875 6.10933783 118.26864844 6.10881239 117.40440933 6.10827102 C113.19642662 6.105661 108.98844386 6.10313357 104.78046107 6.10064721 C69.85362414 6.07990316 34.92681421 6.04466755 0 6 C0 4.02 0 2.04 0 0 Z " fill="#77FFFF" transform="translate(215,0)"/>
<path d="M0 0 C0.99 0.33 1.98 0.66 3 1 C4.73754861 1.10250972 6.47830666 1.15479568 8.21875 1.17578125 C9.23324219 1.19962891 10.24773437 1.22347656 11.29296875 1.24804688 C13.43078625 1.29101154 15.56887126 1.32226435 17.70703125 1.34179688 C18.72152344 1.36951172 19.73601562 1.39722656 20.78125 1.42578125 C21.71001953 1.44036377 22.63878906 1.45494629 23.59570312 1.4699707 C26 2 26 2 27.8215332 3.89453125 C29.2849876 6.50916368 29.15481157 7.75618195 28.6875 10.6875 C28.02686125 15.52021608 27.92136136 20.12440459 28 25 C32.50247745 27.26397993 36.75734475 27.28097592 41.68516541 27.25396729 C42.55908434 27.25708727 43.43300327 27.26020725 44.3334046 27.26342177 C47.26131949 27.27139807 50.18902693 27.2650795 53.11694336 27.25878906 C55.21629457 27.2614991 57.31564483 27.26506011 59.41499329 27.26940918 C65.11742122 27.27853441 70.81977686 27.2749882 76.52220607 27.26865101 C82.48783359 27.26359107 88.45345488 27.26828251 94.41908264 27.27142334 C104.43882357 27.27506328 114.45853503 27.27026344 124.47827148 27.26074219 C136.06339981 27.24986057 147.64845773 27.253381 159.23358434 27.264395 C169.1776518 27.27347061 179.12169805 27.27475171 189.0657683 27.26951766 C195.0060301 27.2663991 200.9462588 27.26598548 206.88651848 27.27259064 C212.47201648 27.27836731 218.05742371 27.2743612 223.64291191 27.26280212 C225.69317982 27.26015715 227.74345537 27.26091786 229.79372025 27.26532745 C232.59186701 27.27079074 235.38972273 27.26393909 238.18785095 27.25396729 C238.99962624 27.25842873 239.81140153 27.26289017 240.64777607 27.26748681 C245.15468628 27.23632484 248.75313621 26.70642826 253 25 C253 27.97 253 30.94 253 34 C177.76 34 102.52 34 25 34 C25 25.75 25 17.5 25 9 C16.75 9 8.5 9 0 9 C0 6.03 0 3.06 0 0 Z " fill="#7D837D" transform="translate(118,343)"/>
<path d="M0 0 C70.95 0 141.9 0 215 0 C215 1.98 215 3.96 215 6 C187.70578818 6.0933848 160.41160025 6.16395055 133.11726093 6.20724869 C120.44441199 6.2278859 107.77166224 6.25602875 95.09887695 6.30175781 C84.05503833 6.34158996 73.01127152 6.36742437 61.96736306 6.37635398 C56.11808298 6.38157483 50.26900839 6.39387004 44.41979408 6.42292023 C38.91639988 6.45003194 33.41329618 6.45845351 27.90984154 6.45243073 C25.88816627 6.45353286 23.86648148 6.46151183 21.84486389 6.4768219 C19.08744537 6.49668327 16.33112796 6.49195322 13.57368469 6.48101807 C12.77114976 6.49266943 11.96861482 6.5043208 11.14176065 6.51632524 C7.36447989 6.47575304 5.19517991 6.12247953 1.96414471 4.09493637 C0 2 0 2 0 0 Z " fill="#FFCB6E" transform="translate(0,0)"/>
<path d="M0 0 C1.27466125 -0.00412399 2.54932251 -0.00824799 3.86260986 -0.01249695 C5.27794095 -0.00187947 6.69326991 0.00902496 8.1085968 0.02018738 C9.59670494 0.02103346 11.08481434 0.02055888 12.57292175 0.01885986 C16.6161129 0.01799773 20.65903804 0.03565861 24.70216727 0.05658174 C28.92623792 0.07531229 33.1503144 0.07709611 37.37442017 0.08065796 C45.3748462 0.08998909 53.37514953 0.11461729 61.37552148 0.14470643 C70.48301836 0.17821724 79.59052104 0.19472809 88.69806421 0.20979273 C107.43434326 0.24116594 126.17050802 0.29394716 144.9066925 0.36076355 C144.9066925 2.01076355 144.9066925 3.66076355 144.9066925 5.36076355 C95.0766925 5.36076355 45.2466925 5.36076355 -6.0933075 5.36076355 C-6.0933075 55.19076355 -6.0933075 105.02076355 -6.0933075 156.36076355 C-6.4233075 156.36076355 -6.7533075 156.36076355 -7.0933075 156.36076355 C-7.0933075 107.52076355 -7.0933075 58.68076355 -7.0933075 8.36076355 C-7.7533075 8.36076355 -8.4133075 8.36076355 -9.0933075 8.36076355 C-9.45593336 3.8883779 -9.45593336 3.8883779 -7.96242046 1.71534252 C-5.27893388 -0.2294273 -3.29573706 -0.00820515 0 0 Z " fill="#719078" transform="translate(226.0933074951172,169.6392364501953)"/>
<path d="M0 0 C47.19 0 94.38 0 143 0 C143 1.98 143 3.96 143 6 C95.81 6 48.62 6 0 6 C0 4.02 0 2.04 0 0 Z " fill="#8A8B00" transform="translate(72,494)"/>
<path d="M0 0 C21.78 0 43.56 0 66 0 C66 1.98 66 3.96 66 6 C64.9830883 6.00879936 64.9830883 6.00879936 63.94563293 6.01777649 C56.88885465 6.08171579 49.83253219 6.16613745 42.77612305 6.26245117 C40.14272064 6.29570325 37.50924691 6.32373424 34.87573242 6.34643555 C31.09002289 6.37997529 27.30496711 6.4322932 23.51953125 6.48828125 C21.7536541 6.49786613 21.7536541 6.49786613 19.95210266 6.50764465 C18.30095711 6.53733589 18.30095711 6.53733589 16.61645508 6.56762695 C15.65048904 6.57873001 14.68452301 6.58983307 13.68928528 6.60127258 C10.48012547 7.0770793 8.60943534 8.09456432 6 10 C3.73180353 13.40229471 3.74329515 14.60533967 3.7215271 18.59977722 C3.71036362 19.76505447 3.69920013 20.93033173 3.68769836 22.13092041 C3.68553818 23.4105365 3.68337799 24.69015259 3.68115234 26.00854492 C3.67185497 27.36858212 3.66168659 28.72861361 3.65071106 30.08863831 C3.6233753 33.78254558 3.60825113 37.47641466 3.59528303 41.17039657 C3.57966809 45.03017171 3.55287268 48.88986865 3.5272522 52.74958801 C3.48043536 60.05931438 3.44370535 67.36905541 3.41057932 74.67885524 C3.37237842 83.00045924 3.32296297 91.32198475 3.27259517 99.64352262 C3.16923213 116.76229166 3.07998598 133.8811061 3 151 C2.01 151 1.02 151 0 151 C0 101.17 0 51.34 0 0 Z " fill="#00CD00" transform="translate(220,175)"/>
<path d="M0 0 C46.86 0 93.72 0 142 0 C140 4 140 4 138 6 C135.5987072 6.24609566 135.5987072 6.24609566 132.52047729 6.24050903 C130.77462341 6.24463303 130.77462341 6.24463303 128.99349976 6.24884033 C127.71028839 6.24164978 126.42707703 6.23445923 125.10498047 6.22705078 C123.74509693 6.22648686 122.38521278 6.22680285 121.02532959 6.22793579 C117.32716584 6.22851106 113.62913107 6.21672877 109.93099737 6.20278788 C106.06859835 6.19030937 102.20619658 6.1891123 98.34378052 6.18673706 C91.02687967 6.1805138 83.71003839 6.16409158 76.3931638 6.14403808 C68.06438462 6.12170535 59.73560264 6.11069227 51.40680099 6.10064721 C34.27116617 6.07972605 17.13558938 6.04453369 0 6 C0 4.02 0 2.04 0 0 Z " fill="#6F6FFF" transform="translate(358,0)"/>
<path d="M0 0 C1.98 0.99 1.98 0.99 4 2 C4.33 63.71 4.66 125.42 5 189 C3.35 188.34 1.7 187.68 0 187 C0 125.29 0 63.58 0 0 Z " fill="#C5C5C5" transform="translate(118,156)"/>
<path d="M0 0 C0.99 0.33 1.98 0.66 3 1 C4.73754861 1.10250972 6.47830666 1.15479568 8.21875 1.17578125 C9.23324219 1.19962891 10.24773437 1.22347656 11.29296875 1.24804688 C13.43078625 1.29101154 15.56887126 1.32226435 17.70703125 1.34179688 C18.72152344 1.36951172 19.73601562 1.39722656 20.78125 1.42578125 C21.71001953 1.44036377 22.63878906 1.45494629 23.59570312 1.4699707 C26 2 26 2 27.8215332 3.89453125 C29.2849876 6.50916368 29.15481157 7.75618195 28.6875 10.6875 C28.02686125 15.52021608 27.92136136 20.12440459 28 25 C32.50247745 27.26397993 36.75734475 27.28097592 41.68516541 27.25396729 C42.55908434 27.25708727 43.43300327 27.26020725 44.3334046 27.26342177 C47.26131949 27.27139807 50.18902693 27.2650795 53.11694336 27.25878906 C55.21629457 27.2614991 57.31564483 27.26506011 59.41499329 27.26940918 C65.11742122 27.27853441 70.81977686 27.2749882 76.52220607 27.26865101 C82.48783359 27.26359107 88.45345488 27.26828251 94.41908264 27.27142334 C104.43882357 27.27506328 114.45853503 27.27026344 124.47827148 27.26074219 C136.06339981 27.24986057 147.64845773 27.253381 159.23358434 27.264395 C169.1776518 27.27347061 179.12169805 27.27475171 189.0657683 27.26951766 C195.0060301 27.2663991 200.9462588 27.26598548 206.88651848 27.27259064 C212.47201648 27.27836731 218.05742371 27.2743612 223.64291191 27.26280212 C225.69317982 27.26015715 227.74345537 27.26091786 229.79372025 27.26532745 C232.59186701 27.27079074 235.38972273 27.26393909 238.18785095 27.25396729 C238.99962624 27.25842873 239.81140153 27.26289017 240.64777607 27.26748681 C245.15468628 27.23632484 248.75313621 26.70642826 253 25 C253 26.65 253 28.3 253 30 C140.635 30.495 140.635 30.495 26 31 C25.05862745 28.17588235 24.88274618 26.47081968 24.90234375 23.55078125 C24.90484131 22.78677002 24.90733887 22.02275879 24.90991211 21.2355957 C24.91901611 20.27097412 24.92812012 19.30635254 24.9375 18.3125 C24.958125 15.239375 24.97875 12.16625 25 9 C16.75 9 8.5 9 0 9 C0 6.03 0 3.06 0 0 Z " fill="#999999" transform="translate(118,343)"/>
<path d="M0 0 C0.33 0 0.66 0 1 0 C1 13.2 1 26.4 1 40 C-3.56376465 40.01981934 -8.1275293 40.03963867 -12.82958984 40.06005859 C-27.873191 40.12683103 -42.91672222 40.20437103 -57.96024132 40.28752708 C-67.08513071 40.33770174 -76.2100109 40.38414399 -85.33496094 40.421875 C-93.28597224 40.45476125 -101.23691311 40.4945736 -109.18784678 40.54279006 C-113.39988008 40.56808869 -117.61186646 40.5898599 -121.82395554 40.60334396 C-125.78510887 40.61613397 -129.74610156 40.63815482 -133.70716667 40.66738319 C-135.16406078 40.67648304 -136.62098077 40.68215478 -138.07790184 40.68421364 C-140.06095315 40.68751909 -142.04396917 40.70414143 -144.02694702 40.7215271 C-145.69447053 40.72982324 -145.69447053 40.72982324 -147.39568138 40.73828697 C-150.16057438 40.73866721 -150.16057438 40.73866721 -152 43 C-152.64767793 45.57061311 -152.64767793 45.57061311 -153 48 C-152.34 48 -151.68 48 -151 48 C-151 94.53 -151 141.06 -151 189 C-151.66 188.67 -152.32 188.34 -153 188 C-153.22394844 169.03326022 -153.42489978 150.06641017 -153.59840012 131.09914017 C-153.67949504 122.29250178 -153.76814264 113.48605987 -153.87451172 104.6796875 C-153.96719309 97.00494912 -154.04576365 89.33021891 -154.10732102 81.65516543 C-154.14041683 77.59041559 -154.18062395 73.52601436 -154.2377243 69.46152496 C-154.29123483 65.63670453 -154.3258908 61.81217873 -154.34602928 57.98704147 C-154.35675843 56.58249978 -154.37440323 55.17799145 -154.39944649 53.77363205 C-154.43259015 51.85723372 -154.43852565 49.94042224 -154.4430542 48.02374268 C-154.45411572 46.95077564 -154.46517723 45.87780861 -154.47657394 44.77232742 C-154 42 -154 42 -152.34557915 39.65553188 C-149.37077613 37.55588786 -147.65357083 37.4958939 -144.02767944 37.48774719 C-142.80501877 37.47527954 -141.58235809 37.46281189 -140.32264709 37.44996643 C-138.97079295 37.45627411 -137.6189405 37.46295471 -136.26708984 37.4699707 C-134.841182 37.46287238 -133.41528202 37.45400875 -131.98939514 37.44351196 C-128.11969229 37.41989713 -124.25032648 37.42063408 -120.38056898 37.42542672 C-116.33353185 37.4260197 -112.28663015 37.40333601 -108.23965454 37.38285828 C-100.57460603 37.34743581 -92.90965236 37.33142805 -85.24453127 37.3230831 C-73.98496765 37.31012268 -62.72548311 37.27188363 -51.4659977 37.22898388 C-50.22894587 37.22427585 -50.22894587 37.22427585 -48.96690309 37.21947271 C-47.32302653 37.21319303 -45.67915021 37.20684947 -44.03527415 37.20044011 C-39.21210804 37.18234504 -34.38898877 37.17126062 -29.56579185 37.16614306 C-26.57093605 37.16231865 -23.57609731 37.15470844 -20.58125114 37.1463356 C-19.18884097 37.14336864 -17.79642588 37.14214105 -16.40401268 37.14274788 C-14.50878915 37.14341196 -12.61356664 37.13754364 -10.71835327 37.13130188 C-9.12499177 37.12941597 -9.12499177 37.12941597 -7.49944115 37.12749195 C-5.00088497 37.1675546 -5.00088497 37.1675546 -3 36 C-2.98018066 34.9805127 -2.96036133 33.96102539 -2.93994141 32.91064453 C-2.86397192 29.13467352 -2.77524191 25.35909227 -2.68261719 21.58349609 C-2.64429148 19.9481576 -2.60944493 18.31273376 -2.578125 16.67724609 C-2.53255158 14.3287909 -2.47454633 11.98092505 -2.4140625 9.6328125 C-2.40251129 8.89942657 -2.39096008 8.16604065 -2.37905884 7.41043091 C-2.22774341 2.22774341 -2.22774341 2.22774341 0 0 Z " fill="#B3B3B3" transform="translate(370,130)"/>
<path d="M0 0 C23.1 0 46.2 0 70 0 C70 38.61 70 77.22 70 117 C46.24 117 22.48 117 -2 117 C-2 116.34 -2 115.68 -2 115 C21.43 115 44.86 115 69 115 C69 79.36 69 43.72 69 7 C49.10492617 7.07913684 49.10492617 7.07913684 29.20996094 7.18017578 C26.71810069 7.18601633 24.22623855 7.19111292 21.734375 7.1953125 C19.78942139 7.2106604 19.78942139 7.2106604 17.80517578 7.22631836 C16.56719238 7.22656006 15.32920898 7.22680176 14.05371094 7.22705078 C12.44154694 7.23371262 12.44154694 7.23371262 10.79681396 7.24050903 C8.00951961 7.00081863 6.36870835 6.43995607 4 5 C4.33 4.01 4.66 3.02 5 2 C3.35 1.67 1.7 1.34 0 1 C0 0.67 0 0.34 0 0 Z " fill="#BBD400" transform="translate(145,377)"/>
<path d="M0 0 C0.66 0 1.32 0 2 0 C2.04935824 5.23273331 2.08569949 10.46533176 2.10986328 15.69824219 C2.11993431 17.47919067 2.13359185 19.26012257 2.15087891 21.04101562 C2.17507913 23.59769783 2.18647184 26.15416185 2.1953125 28.7109375 C2.20563507 29.50994476 2.21595764 30.30895203 2.22659302 31.13217163 C2.22699226 33.0895722 2.12241069 35.04643077 2 37 C-1.50003462 40.50003462 -5.2890299 40.11775643 -10.09406132 40.1384055 C-10.91166229 40.1368569 -11.72926326 40.1353083 -12.57164001 40.13371277 C-13.44541009 40.13597833 -14.31918017 40.13824388 -15.21942812 40.14057809 C-18.15272782 40.14691764 -21.08598131 40.14608876 -24.01928711 40.14526367 C-26.12011271 40.14825516 -28.22093776 40.15165767 -30.32176208 40.15544128 C-36.03242555 40.16428582 -41.74307404 40.16661957 -47.4537437 40.16725707 C-52.21784898 40.16820584 -56.98195077 40.17188371 -61.74605471 40.17542917 C-72.98329283 40.18357521 -84.22052294 40.18601324 -95.45776367 40.18530273 C-107.0582234 40.18470167 -118.65863667 40.19525884 -130.25908464 40.2110464 C-140.21245415 40.22411078 -150.16580844 40.22948711 -160.11918646 40.22884732 C-166.066702 40.22859204 -172.01417625 40.23145997 -177.96168327 40.24202538 C-183.55372363 40.25168798 -189.14568305 40.25179817 -194.73772621 40.24450874 C-196.79164116 40.24346066 -198.8455611 40.24583899 -200.89946747 40.2518692 C-203.70019968 40.25956039 -206.5006504 40.25496338 -209.30137634 40.24723816 C-210.52443172 40.2549535 -210.52443172 40.2549535 -211.77219528 40.26282471 C-220.79226831 40.20773169 -220.79226831 40.20773169 -224 37 C-224.18187415 31.2709644 -223.83367546 25.83572823 -223.0234375 20.1640625 C-222.79341278 17.6992291 -222.79341278 17.6992291 -225 15 C-222.525 15.99 -222.525 15.99 -220 17 C-220 23.6 -220 30.2 -220 37 C-148.72 37 -77.44 37 -4 37 C-3.67 25.78 -3.34 14.56 -3 3 C-2.01 2.01 -1.02 1.02 0 0 Z " fill="#CECECE" transform="translate(369,331)"/>
<path d="M0 0 C0.33 0 0.66 0 1 0 C1 63.69 1 127.38 1 193 C0.34 193.33 -0.32 193.66 -1 194 C-1 192.02 -1 190.04 -1 188 C-1.33 188 -1.66 188 -2 188 C-2.20059907 164.22623978 -2.38391133 140.45240082 -2.54658794 116.67834949 C-2.62252381 105.63989648 -2.7041375 94.60153974 -2.79907227 83.56323242 C-2.88179333 73.9433742 -2.95390761 64.32350528 -3.01323253 54.70347327 C-3.04502278 49.6087148 -3.08215962 44.51412075 -3.13199425 39.41950417 C-3.17872225 34.62535805 -3.21127896 29.83132554 -3.2329216 25.03700256 C-3.24337523 23.27653801 -3.25902693 21.51609554 -3.28024101 19.75572777 C-3.30841883 17.35321308 -3.31793953 14.95131891 -3.32279968 12.54866028 C-3.33542916 11.85118095 -3.34805863 11.15370162 -3.36107081 10.43508655 C-3.34452415 6.13241148 -2.61435427 3.43796287 0 0 Z " fill="#D38800" transform="translate(117,155)"/>
<path d="M0 0 C23.76 0 47.52 0 72 0 C72 2.31 72 4.62 72 7 C36.36 7.495 36.36 7.495 0 8 C0 5.36 0 2.72 0 0 Z " fill="#0CC1C1" transform="translate(286,377)"/>
<path d="M0 0 C23.43 0 46.86 0 71 0 C71 2.31 71 4.62 71 7 C35.855 7.495 35.855 7.495 0 8 C0 5.36 0 2.72 0 0 Z " fill="#00C100" transform="translate(215,377)"/>
<path d="M0 0 C23.76 0 47.52 0 72 0 C72 1.98 72 3.96 72 6 C36.36 6.495 36.36 6.495 0 7 C0 4.69 0 2.38 0 0 Z " fill="#0CCACA" transform="translate(286,175)"/>
<path d="M0 0 C2.49361571 1.20381448 4.68143083 2.45428722 7 4 C7.29470065 6.49056331 7.39143903 8.73311348 7.36076355 11.2258606 C7.36332682 11.97894308 7.3658901 12.73202556 7.36853105 13.50792873 C7.37349328 16.04472528 7.35693637 18.58093358 7.34057617 21.11767578 C7.33973042 22.93075547 7.34020402 24.74383619 7.34190369 26.55691528 C7.34276711 31.49061311 7.32508534 36.4240937 7.30418181 41.35774088 C7.2854727 46.50938736 7.28366913 51.66103841 7.28010559 56.81271362 C7.27076813 66.57333582 7.24613139 76.33385764 7.21605712 86.09443557 C7.18256595 97.20429272 7.16604041 108.31415458 7.15097082 119.42404962 C7.11958329 142.28275547 7.06678982 165.14137212 7 188 C8.86205078 188.05607422 8.86205078 188.05607422 10.76171875 188.11328125 C12.40367511 188.1789595 14.04560087 188.2454062 15.6875 188.3125 C16.50412109 188.33505859 17.32074219 188.35761719 18.16210938 188.38085938 C22.90720907 188.5921796 26.08713305 189.02749618 30 192 C29.67 192.66 29.34 193.32 29 194 C27.515 193.01 27.515 193.01 26 192 C23.6966814 191.65030922 23.6966814 191.65030922 21.1484375 191.62109375 C20.21515625 191.58693359 19.281875 191.55277344 18.3203125 191.51757812 C16.86238281 191.47793945 16.86238281 191.47793945 15.375 191.4375 C13.44518037 191.37782795 11.51547639 191.31424228 9.5859375 191.24609375 C8.7304834 191.22216553 7.8750293 191.1982373 6.99365234 191.17358398 C5 191 5 191 4 190 C3.89660078 187.60139688 3.85840638 185.23125061 3.86196899 182.83192444 C3.85914771 182.07294041 3.85632643 181.31395637 3.85341966 180.53197283 C3.84503579 177.96930314 3.8437322 175.40667645 3.84228516 172.84399414 C3.83761979 171.01460141 3.83247669 169.18520985 3.82688904 167.3558197 C3.81558739 163.40686717 3.80716329 159.45792229 3.80076981 155.50895882 C3.79011894 149.27038356 3.76988284 143.0318631 3.74765015 136.7933197 C3.68562494 119.05014549 3.63166827 101.30697428 3.59863281 83.5637207 C3.58032087 73.77163971 3.55142901 63.97965015 3.5106281 54.18763632 C3.48950154 49.00084631 3.47409288 43.81417182 3.47182083 38.6273365 C3.46968234 33.75098324 3.45389534 28.87487056 3.42743111 23.99859047 C3.42020619 22.20466689 3.41815247 20.41071427 3.42153358 18.61677933 C3.42540051 16.17591706 3.41106527 13.73583381 3.39199829 11.2950592 C3.39752799 10.57785062 3.40305768 9.86064204 3.40875494 9.12169987 C3.4144167 6.94620826 3.4144167 6.94620826 3 4 C2.01 3.34 1.02 2.68 0 2 C0 1.34 0 0.68 0 0 Z " fill="#E5E5E5" transform="translate(118,154)"/>
<path d="M0 0 C23.76 0 47.52 0 72 0 C72 1.98 72 3.96 72 6 C48.24 6 24.48 6 0 6 C0 4.02 0 2.04 0 0 Z " fill="#088B8B" transform="translate(286,494)"/>
<path d="M0 0 C23.43 0 46.86 0 71 0 C71 1.98 71 3.96 71 6 C47.57 6 24.14 6 0 6 C0 4.02 0 2.04 0 0 Z " fill="#00008B" transform="translate(358,494)"/>
<path d="M0 0 C23.43 0 46.86 0 71 0 C71 1.98 71 3.96 71 6 C47.57 6 24.14 6 0 6 C0 4.02 0 2.04 0 0 Z " fill="#008B00" transform="translate(215,494)"/>
<path d="M0 0 C23.43 0 46.86 0 71 0 C71 1.98 71 3.96 71 6 C47.57 6 24.14 6 0 6 C0 4.02 0 2.04 0 0 Z " fill="#8B5A00" transform="translate(72,494)"/>
<path d="M0 0 C23.43 0 46.86 0 71 0 C71 1.98 71 3.96 71 6 C47.57 6 24.14 6 0 6 C0 4.02 0 2.04 0 0 Z " fill="#6EFF6E" transform="translate(215,0)"/>
<path d="M0 0 C9.10959165 -0.02312545 18.21917326 -0.04091612 27.3287878 -0.05181217 C31.55831371 -0.05704056 35.7878196 -0.0641374 40.01733398 -0.07543945 C44.09568543 -0.08626991 48.17401757 -0.09227717 52.25238228 -0.09487724 C53.81177639 -0.09673121 55.3711694 -0.10035127 56.93055534 -0.10573006 C59.10729162 -0.11294262 61.28394714 -0.11399085 63.46069336 -0.11352539 C65.32267616 -0.11685631 65.32267616 -0.11685631 67.22227478 -0.12025452 C70 0 70 0 71 1 C71 2.65 71 4.3 71 6 C47.57 6 24.14 6 0 6 C0 4.02 0 2.04 0 0 Z " fill="#450045" transform="translate(429,494)"/>
<path d="M0 0 C23.76 0 47.52 0 72 0 C72 1.98 72 3.96 72 6 C63.35071089 6.0927549 54.70159346 6.16379244 46.05191517 6.20724869 C42.03532635 6.22810753 38.01907827 6.25639332 34.00268555 6.30175781 C30.12528328 6.34527746 26.24820836 6.36914992 22.37058067 6.37950897 C20.89259374 6.38688947 19.41462437 6.40130214 17.93677711 6.42292023 C15.86346609 6.45203761 13.79150077 6.45595283 11.71801758 6.45410156 C9.94930046 6.46742523 9.94930046 6.46742523 8.14485168 6.48101807 C4.35891537 5.90194346 2.6740795 4.69528414 0 2 C0 1.34 0 0.68 0 0 Z " fill="#FF7A7A" transform="translate(0,0)"/>
<path d="M0 0 C23.43 0 46.86 0 71 0 C69 4 69 4 67 6 C64.21591187 6.24050903 64.21591187 6.24050903 60.62255859 6.22705078 C59.96877731 6.22734283 59.31499603 6.22763489 58.6414032 6.22793579 C56.47694704 6.22654065 54.31283364 6.2109712 52.1484375 6.1953125 C50.64914132 6.19158302 49.1498427 6.18873574 47.65054321 6.18673706 C43.70163257 6.17909548 39.75286871 6.1594426 35.80401611 6.1373291 C31.77561428 6.1168819 27.74718876 6.10773776 23.71875 6.09765625 C15.81243259 6.07619711 7.90623455 6.04205495 0 6 C0 4.02 0 2.04 0 0 Z " fill="#BC79BC" transform="translate(429,0)"/>
<path d="M0 0 C1.16082596 0.00030212 2.32165192 0.00060425 3.51765442 0.00091553 C4.76052719 0.02156067 6.00339996 0.04220581 7.28393555 0.06347656 C8.56423141 0.06913635 9.84452728 0.07479614 11.16362 0.08062744 C14.55542643 0.09584704 17.94653977 0.13509522 21.33807373 0.17944336 C24.80365627 0.2204766 28.2693516 0.23865551 31.73510742 0.25878906 C38.52642266 0.30287319 45.31722566 0.36979979 52.1081543 0.45410156 C52.1081543 1.11410156 52.1081543 1.77410156 52.1081543 2.45410156 C51.0912426 2.46290092 51.0912426 2.46290092 50.05378723 2.47187805 C42.99700895 2.53581735 35.94068649 2.62023902 28.88427734 2.71655273 C26.25087494 2.74980481 23.61740121 2.77783581 20.98388672 2.80053711 C17.19817718 2.83407685 13.41312141 2.88639477 9.62768555 2.94238281 C7.8618084 2.9519677 7.8618084 2.9519677 6.06025696 2.96174622 C4.4091114 2.99143745 4.4091114 2.99143745 2.72460938 3.02172852 C1.75864334 3.03283157 0.79267731 3.04393463 -0.20256042 3.05537415 C-3.41172023 3.53118086 -5.28241036 4.54866588 -7.8918457 6.45410156 C-10.16004218 9.85639627 -10.14855055 11.05944123 -10.1703186 15.05387878 C-10.18148209 16.21915604 -10.19264557 17.38443329 -10.20414734 18.58502197 C-10.20630753 19.86463806 -10.20846771 21.14425415 -10.21069336 22.46264648 C-10.21999073 23.82268369 -10.23015912 25.18271517 -10.24113464 26.54273987 C-10.2684704 30.23664715 -10.28359458 33.93051622 -10.29656267 37.62449813 C-10.31217762 41.48427328 -10.33897303 45.34397021 -10.36459351 49.20368958 C-10.41141034 56.51341594 -10.44814035 63.82315697 -10.48126638 71.1329568 C-10.51946728 79.45456081 -10.56888274 87.77608631 -10.61925054 96.09762418 C-10.72261357 113.21639322 -10.81185972 130.33520767 -10.8918457 147.45410156 C-12.84531145 144.1707737 -13.14288586 141.71596196 -13.14581299 137.91957092 C-13.15145264 136.79380142 -13.15709229 135.66803192 -13.16290283 134.50814819 C-13.15885437 133.27738556 -13.15480591 132.04662292 -13.15063477 130.77856445 C-13.1541394 129.47903336 -13.15764404 128.17950226 -13.16125488 126.84059143 C-13.17037087 123.27858475 -13.16683768 119.71669396 -13.16049671 116.15468526 C-13.15543156 112.42542157 -13.1601297 108.69616777 -13.16326904 104.96690369 C-13.16690764 98.70325948 -13.16211287 92.43966244 -13.15258789 86.17602539 C-13.14170828 78.93807252 -13.14522573 71.70023237 -13.1562407 64.46228224 C-13.16532229 58.24560459 -13.16659445 52.02896083 -13.16136336 45.81227869 C-13.15824785 42.10041516 -13.15782273 38.38860457 -13.16443634 34.67674446 C-13.1712963 30.5374397 -13.16178279 26.39832861 -13.15063477 22.2590332 C-13.15468323 21.0302948 -13.15873169 19.8015564 -13.16290283 18.5355835 C-13.15726318 17.40699417 -13.15162354 16.27840485 -13.14581299 15.11561584 C-13.14505894 14.13725801 -13.14430489 13.15890017 -13.14352798 12.15089512 C-12.74461915 7.87655852 -11.6513197 5.22278277 -8.63508606 2.16998291 C-5.44240615 0.17297966 -3.73608388 -0.03255847 0 0 Z " fill="#00DB00" transform="translate(233.891845703125,178.5458984375)"/>
<path d="M0 0 C23.76 0 47.52 0 72 0 C72 1.98 72 3.96 72 6 C48.24 5.67 24.48 5.34 0 5 C0 3.35 0 1.7 0 0 Z " fill="#FEFF75" transform="translate(143,0)"/>
<path d="M0 0 C23.76 0 47.52 0 72 0 C72 1.65 72 3.3 72 5 C48.24 5 24.48 5 0 5 C0 3.35 0 1.7 0 0 Z " fill="#840000" transform="translate(0,495)"/>
<path d="M0 0 C0.33 0 0.66 0 1 0 C1.98139282 7.91240467 2.16849573 15.74461854 2.20532227 23.71142578 C2.2149231 25.06264022 2.22493439 26.4138518 2.23532104 27.76506042 C2.26213765 31.4027635 2.28327161 35.04047923 2.30332303 38.67822504 C2.32532762 42.49122527 2.35264487 46.30418751 2.37937927 50.11715698 C2.42911192 57.32395242 2.47412206 64.53076916 2.51740164 71.73760593 C2.56694104 79.94810574 2.62179673 88.15856741 2.67708123 96.36903024 C2.79060267 113.24598482 2.8975056 130.12297492 3 147 C3.66 147.33 4.32 147.66 5 148 C5 148.66 5 149.32 5 150 C3.35 149.67 1.7 149.34 0 149 C0 99.83 0 50.66 0 0 Z " fill="#DDDDDD" transform="translate(214,172)"/>
<path d="M0 0 C23.43 0 46.86 0 71 0 C71 1.32 71 2.64 71 4 C47.57 4 24.14 4 0 4 C0 2.68 0 1.36 0 0 Z " fill="#FFFF27" transform="translate(143,5)"/>
<path d="M0 0 C21.45 0 42.9 0 65 0 C65 1.32 65 2.64 65 4 C57.11568572 4.04635853 49.23142848 4.08188702 41.34701157 4.10362434 C37.68588188 4.11405763 34.02484551 4.12820844 30.36376953 4.15087891 C26.83004083 4.17262364 23.29640184 4.18457205 19.76261139 4.18975449 C17.75957783 4.19524344 15.75658031 4.21085381 13.75360107 4.22659302 C12.53263733 4.22674408 11.31167358 4.22689514 10.05371094 4.22705078 C8.44154694 4.23371262 8.44154694 4.23371262 6.79681396 4.24050903 C4.00951961 4.00081863 2.36870835 3.43995607 0 2 C0 1.34 0 0.68 0 0 Z " fill="#D8D800" transform="translate(149,380)"/>
<path d="M0 0 C23.76 0 47.52 0 72 0 C72 0.66 72 1.32 72 2 C76.29 2 80.58 2 85 2 C85 2.33 85 2.66 85 3 C56.95 3 28.9 3 0 3 C0 2.01 0 1.02 0 0 Z " fill="#30E0E8" transform="translate(286,121)"/>
<path d="M0 0 C23.76 0 47.52 0 72 0 C72 0.99 72 1.98 72 3 C36.36 3.495 36.36 3.495 0 4 C0 2.68 0 1.36 0 0 Z " fill="#0DDCDC" transform="translate(286,381)"/>
<path d="M0 0 C23.43 0 46.86 0 71 0 C71 0.99 71 1.98 71 3 C35.855 3.495 35.855 3.495 0 4 C0 2.68 0 1.36 0 0 Z " fill="#00DC00" transform="translate(215,381)"/>
<path d="M0 0 C0.33 0 0.66 0 1 0 C1.19448477 2.12437212 1.38038289 4.24953191 1.5625 6.375 C1.66691406 7.55835938 1.77132813 8.74171875 1.87890625 9.9609375 C2 13 2 13 1 15 C1.66 15 2.32 15 3 15 C3.2182206 19.1618604 3.41482904 23.32403201 3.59204102 27.48779297 C3.65521272 28.90212833 3.72413736 30.31621954 3.79907227 31.72998047 C3.90618353 33.7701266 3.99211632 35.810275 4.07421875 37.8515625 C4.16062622 39.68968506 4.16062622 39.68968506 4.2487793 41.56494141 C3.92093792 46.09166184 2.34491737 49.22715437 -0.375 52.8125 C-2.52872219 54.38637391 -4.3753889 54.57273773 -7 55 C-9.00744615 55.64389782 -11.00945124 56.30562253 -13 57 C-13 54.69 -13 52.38 -13 50 C-8.71 50 -4.42 50 0 50 C0 33.5 0 17 0 0 Z " fill="#0101D2" transform="translate(371,125)"/>
<path d="M0 0 C1.32 0 2.64 0 4 0 C4 0.66 4 1.32 4 2 C7.30463401 3.10154467 9.82610919 3.15818717 13.30737305 3.20532227 C14.60849533 3.22526749 15.90961761 3.24521271 17.25016785 3.26576233 C18.6706836 3.28274546 20.0912006 3.29962431 21.51171875 3.31640625 C22.96475306 3.33698137 24.41778146 3.35797799 25.87080383 3.37937927 C29.6929953 3.43454234 33.51524026 3.48397698 37.33752441 3.53222656 C41.23873652 3.58248372 45.13987105 3.63814778 49.04101562 3.69335938 C56.69394469 3.80087041 64.34693833 3.90233098 72 4 C72 4.66 72 5.32 72 6 C63.35071089 6.0927549 54.70159346 6.16379244 46.05191517 6.20724869 C42.03532635 6.22810753 38.01907827 6.25639332 34.00268555 6.30175781 C30.12528328 6.34527746 26.24820836 6.36914992 22.37058067 6.37950897 C20.89259374 6.38688947 19.41462437 6.40130214 17.93677711 6.42292023 C15.86346609 6.45203761 13.79150077 6.45595283 11.71801758 6.45410156 C9.94930046 6.46742523 9.94930046 6.46742523 8.14485168 6.48101807 C4.35891537 5.90194346 2.6740795 4.69528414 0 2 C0 1.34 0 0.68 0 0 Z " fill="#FF5454" transform="translate(0,0)"/>
<path d="M0 0 C0.99 0 1.98 0 3 0 C1.84826645 2.46800047 0.95216435 4.04783565 -1 6 C-3.78408813 6.24050903 -3.78408813 6.24050903 -7.37744141 6.22705078 C-8.03122269 6.22734283 -8.68500397 6.22763489 -9.3585968 6.22793579 C-11.52305296 6.22654065 -13.68716636 6.2109712 -15.8515625 6.1953125 C-17.35085868 6.19158302 -18.8501573 6.18873574 -20.34945679 6.18673706 C-24.29836743 6.17909548 -28.24713129 6.1594426 -32.19598389 6.1373291 C-36.22438572 6.1168819 -40.25281124 6.10773776 -44.28125 6.09765625 C-52.18756741 6.07619711 -60.09376545 6.04205495 -68 6 C-68 5.34 -68 4.68 -68 4 C-67.19233688 3.99413376 -66.38467377 3.98826752 -65.55253601 3.98222351 C-57.94501422 3.92434532 -50.33782177 3.85229728 -42.73059368 3.76428509 C-38.81952152 3.71953685 -34.90855459 3.68029089 -30.99731445 3.65356445 C-27.22347912 3.62757539 -23.45004781 3.5872051 -19.67646217 3.53681374 C-18.23600091 3.52011506 -16.79546972 3.50861947 -15.35492516 3.50238609 C-13.33896226 3.49277852 -11.32312559 3.46303898 -9.30737305 3.43237305 C-7.58528877 3.41571846 -7.58528877 3.41571846 -5.82841492 3.39872742 C-2.65309292 2.9510958 -2.04003019 2.32346868 0 0 Z " fill="#A952A9" transform="translate(497,0)"/>
<path d="M0 0 C21.78 0 43.56 0 66 0 C66 0.66 66 1.32 66 2 C65.24689041 2.00586624 64.49378082 2.01173248 63.71784973 2.01777649 C56.61129697 2.07574392 49.50505976 2.14784357 42.39882374 2.23571491 C38.74564138 2.28039218 35.09256985 2.31965377 31.43920898 2.34643555 C27.91173821 2.37249545 24.38469454 2.41291592 20.85748863 2.46318626 C18.86072321 2.48792576 16.86379245 2.49789298 14.86689758 2.50764465 C13.64600937 2.52743881 12.42512115 2.54723297 11.16723633 2.56762695 C10.09468094 2.57873001 9.02212555 2.58983307 7.91706848 2.60127258 C4.63172448 3.05033874 2.69947558 4.11956735 0 6 C0 4.02 0 2.04 0 0 Z " fill="#00B900" transform="translate(220,175)"/>
<path d="M0 0 C3.93743833 -0.05797565 7.87476719 -0.09358789 11.8125 -0.125 C12.93205078 -0.14175781 14.05160156 -0.15851563 15.20507812 -0.17578125 C16.27822266 -0.18222656 17.35136719 -0.18867188 18.45703125 -0.1953125 C19.9416687 -0.21102295 19.9416687 -0.21102295 21.45629883 -0.22705078 C24 0 24 0 27 2 C27.1875 5.125 27.1875 5.125 27 8 C26.01 8.495 26.01 8.495 25 9 C25 7.68 25 6.36 25 5 C16.75 5 8.5 5 0 5 C0 3.35 0 1.7 0 0 Z " fill="#89837A" transform="translate(118,347)"/>
<path d="M0 0 C0.33 0 0.66 0 1 0 C1.19448477 2.12437212 1.38038289 4.24953191 1.5625 6.375 C1.66691406 7.55835938 1.77132813 8.74171875 1.87890625 9.9609375 C2 13 2 13 1 15 C1.66 15 2.32 15 3 15 C3.24229526 19.19826071 3.45716205 23.39677183 3.64697266 27.59765625 C3.71533285 29.02576864 3.79111007 30.45354642 3.87451172 31.88085938 C3.99328396 33.93576228 4.08510903 35.99040235 4.171875 38.046875 C4.2347168 39.28276367 4.29755859 40.51865234 4.36230469 41.79199219 C4 45 4 45 0 49 C0 32.83 0 16.66 0 0 Z " fill="#0101D4" transform="translate(371,327)"/>
<path d="M0 0 C0.99 0.33 1.98 0.66 3 1 C4.73754861 1.10250972 6.47830666 1.15479568 8.21875 1.17578125 C9.23324219 1.19962891 10.24773437 1.22347656 11.29296875 1.24804688 C13.43078625 1.29101154 15.56887126 1.32226435 17.70703125 1.34179688 C18.72152344 1.36951172 19.73601562 1.39722656 20.78125 1.42578125 C21.71001953 1.44036377 22.63878906 1.45494629 23.59570312 1.4699707 C26 2 26 2 27.8215332 3.89453125 C29.2849876 6.50916368 29.15481157 7.75618195 28.6875 10.6875 C28.02686125 15.52021608 27.92136136 20.12440459 28 25 C29.65 25.66 31.3 26.32 33 27 C33 27.33 33 27.66 33 28 C30.36 28 27.72 28 25 28 C24.97314905 25.52076199 24.95323453 23.0418116 24.9375 20.5625 C24.92912109 19.85544922 24.92074219 19.14839844 24.91210938 18.41992188 C24.90346412 16.61306441 24.94779989 14.80612397 25 13 C25.33 12.67 25.66 12.34 26 12 C26.04080783 10.00041636 26.04254356 7.99954746 26 6 C23.42788678 4.71394339 21.43093034 4.78956059 18.5546875 4.68359375 C17.47832031 4.64169922 16.40195313 4.59980469 15.29296875 4.55664062 C13.60107422 4.49766602 13.60107422 4.49766602 11.875 4.4375 C10.73933594 4.39431641 9.60367188 4.35113281 8.43359375 4.30664062 C5.62252232 4.2003396 2.81136055 4.09830595 0 4 C0 2.68 0 1.36 0 0 Z " fill="#B5B5AF" transform="translate(118,343)"/>
<path d="M0 0 C7.92 0 15.84 0 24 0 C24 6.6 24 13.2 24 20 C23.34 20.33 22.68 20.66 22 21 C21.87963336 15.22240116 22.1679418 9.72040011 23 4 C20.36 3.67 17.72 3.34 15 3 C15.33 3.99 15.66 4.98 16 6 C8.25 6.125 8.25 6.125 6 5 C5.67 4.01 5.34 3.02 5 2 C3.35 1.67 1.7 1.34 0 1 C0 0.67 0 0.34 0 0 Z " fill="#BE7B00" transform="translate(119,352)"/>
<path d="M0 0 C0.33 0 0.66 0 1 0 C1.0740421 5.09029944 1.12855008 10.18028692 1.16479492 15.27099609 C1.1799009 17.00347349 1.20038694 18.73591254 1.22631836 20.46826172 C1.26262321 22.95549978 1.27970765 25.44223326 1.29296875 27.9296875 C1.30845261 28.70682098 1.32393646 29.48395447 1.33988953 30.28463745 C1.34057617 32.46826172 1.34057617 32.46826172 1 36 C0.01 36.66 -0.98 37.32 -2 38 C-2.99 37.67 -3.98 37.34 -5 37 C-4.01 36.505 -4.01 36.505 -3 36 C-2.98018066 34.9805127 -2.96036133 33.96102539 -2.93994141 32.91064453 C-2.86397192 29.13467352 -2.77524191 25.35909227 -2.68261719 21.58349609 C-2.64429148 19.9481576 -2.60944493 18.31273376 -2.578125 16.67724609 C-2.53255158 14.3287909 -2.47454633 11.98092505 -2.4140625 9.6328125 C-2.40251129 8.89942657 -2.39096008 8.16604065 -2.37905884 7.41043091 C-2.22774341 2.22774341 -2.22774341 2.22774341 0 0 Z " fill="#C0C0C0" transform="translate(370,130)"/>
<path d="M0 0 C0.33 0 0.66 0 1 0 C1 11.88 1 23.76 1 36 C-0.32 36.66 -1.64 37.32 -3 38 C-2.90658639 32.90933774 -2.80052089 27.81915796 -2.68261719 22.72900391 C-2.64428659 20.99665593 -2.60944094 19.26422726 -2.578125 17.53173828 C-2.53256235 15.04430251 -2.47455497 12.55742434 -2.4140625 10.0703125 C-2.40251129 9.29317902 -2.39096008 8.51604553 -2.37905884 7.71536255 C-2.22774341 2.22774341 -2.22774341 2.22774341 0 0 Z " fill="#BCBCBC" transform="translate(370,332)"/>
<path d="M0 0 C0.33 0 0.66 0 1 0 C1 1.65 1 3.3 1 5 C1.61875 5.268125 2.2375 5.53625 2.875 5.8125 C5 7 5 7 7 10 C7.30891093 14.2475253 7.33046701 17.3586453 5 21 C3.68 21 2.36 21 1 21 C0.67 22.32 0.34 23.64 0 25 C0 16.75 0 8.5 0 0 Z " fill="#E4E4DE" transform="translate(143,124)"/>
<path d="M0 0 C0.33 0 0.66 0 1 0 C1 6.6 1 13.2 1 20 C-2.3 20 -5.6 20 -9 20 C-4.5078125 13.75 -4.5078125 13.75 -3 12 C-2.34 12 -1.68 12 -1 12 C-1.20625 10.948125 -1.4125 9.89625 -1.625 8.8125 C-1.99963104 5.00375113 -1.71630067 3.33164248 0 0 Z " fill="#DB8E00" transform="translate(142,129)"/>
<path d="M0 0 C4.62 0 9.24 0 14 0 C11.71311466 3.43032801 11.65569356 3.1644129 8 4 C6.32260138 4.98189187 4.65532623 5.98133771 3 7 C2.01 7.33 1.02 7.66 0 8 C0 5.36 0 2.72 0 0 Z " fill="#0101D5" transform="translate(358,377)"/>
<path d="M0 0 C5.75 -0.125 5.75 -0.125 8 1 C9.53668865 1.22467831 11.07968054 1.40796805 12.625 1.5625 C13.44226563 1.64628906 14.25953125 1.73007812 15.1015625 1.81640625 C15.72804687 1.87699219 16.35453125 1.93757813 17 2 C16.01 2.495 16.01 2.495 15 3 C15.33 3.99 15.66 4.98 16 6 C8.25 6.125 8.25 6.125 6 5 C5.67 4.01 5.34 3.02 5 2 C3.35 1.67 1.7 1.34 0 1 C0 0.67 0 0.34 0 0 Z " fill="#C88100" transform="translate(119,352)"/>
<path d="M0 0 C0.5625 1.9375 0.5625 1.9375 1 4 C0.67 4.33 0.34 4.66 0 5 C-0.15888092 7.28988781 -0.25138073 9.58443441 -0.31640625 11.87890625 C-0.33718735 12.5655687 -0.35796844 13.25223114 -0.37937927 13.95970154 C-0.44494143 16.16052935 -0.50379015 18.36147975 -0.5625 20.5625 C-0.60567892 22.05144514 -0.649293 23.54037773 -0.69335938 25.02929688 C-0.8006293 28.68606553 -0.90187772 32.34297318 -1 36 C-1.33 36 -1.66 36 -2 36 C-2.04936883 31.19451403 -2.08570443 26.38917506 -2.10986328 21.58349609 C-2.11993254 19.94805328 -2.13358881 18.31262851 -2.15087891 16.67724609 C-2.17508705 14.3290563 -2.18647357 11.98110412 -2.1953125 9.6328125 C-2.21079636 8.53273361 -2.21079636 8.53273361 -2.22659302 7.41043091 C-2.22699368 5.60537303 -2.12212755 3.8009217 -2 2 C-1.34 1.34 -0.68 0.68 0 0 Z " fill="#C7C7C7" transform="translate(370,332)"/>
<path d="M0 0 C0.99 0.33 1.98 0.66 3 1 C3 4.96 3 8.92 3 13 C2.01 13.33 1.02 13.66 0 14 C0 9.38 0 4.76 0 0 Z " fill="#C4C4B7" transform="translate(143,130)"/>
<path d="M0 0 C0.62261719 0.31710937 1.24523437 0.63421875 1.88671875 0.9609375 C6.18321806 2.39490088 10.31008848 2.46383986 14.8125 2.625 C15.69615234 2.66367187 16.57980469 2.70234375 17.49023438 2.7421875 C19.65982972 2.83600784 21.82988547 2.91907326 24 3 C24 3.33 24 3.66 24 4 C16.08 4 8.16 4 0 4 C0 2.68 0 1.36 0 0 Z " fill="#A1A1A1" transform="translate(118,343)"/>
<path d="M0 0 C0.33 0 0.66 0 1 0 C1 4.62 1 9.24 1 14 C-0.98 14 -2.96 14 -5 14 C-4.0409375 12.7625 -4.0409375 12.7625 -3.0625 11.5 C-0.53586919 7.76808594 -0.30639772 4.44276697 0 0 Z " fill="#CC8400" transform="translate(142,135)"/>
<path d="M0 0 C3.80666984 1.44390925 5.26602582 3.34952803 7 7 C6.67 7.66 6.34 8.32 6 9 C5.38125 8.360625 4.7625 7.72125 4.125 7.0625 C2.17402388 4.96116416 2.17402388 4.96116416 0 4 C0 2.68 0 1.36 0 0 Z " fill="#F70B0B" transform="translate(0,2)"/>
<path d="M0 0 C1.4800841 0.11362262 2.95910074 0.24122908 4.4375 0.375 C5.26121094 0.44460938 6.08492187 0.51421875 6.93359375 0.5859375 C7.95646484 0.79089844 7.95646484 0.79089844 9 1 C9.33 1.66 9.66 2.32 10 3 C2.25 3.125 2.25 3.125 0 2 C0 1.34 0 0.68 0 0 Z " fill="#D78B00" transform="translate(125,355)"/>
<path d="M0 0 C2.64 0 5.28 0 8 0 C6.8125 1.5 6.8125 1.5 5 3 C2.3125 3.1875 2.3125 3.1875 0 3 C0 2.01 0 1.02 0 0 Z " fill="#0101BF" transform="translate(358,377)"/>
<path d="M0 0 C0.25 2.3125 0.25 2.3125 0 5 C-2 6.8125 -2 6.8125 -4 8 C-4.36780384 3.46375267 -4.36780384 3.46375267 -2.5625 1.1875 C-1 0 -1 0 0 0 Z " fill="#760476" transform="translate(500,2)"/>
</svg>
