<?xml version="1.0" encoding="UTF-8"?>
<svg version="1.1" xmlns="http://www.w3.org/2000/svg" width="100" height="100">
<path d="M0 0 C33 0 66 0 100 0 C100 33 100 66 100 100 C67 100 34 100 0 100 C0 67 0 34 0 0 Z " fill="#038025" transform="translate(0,0)"/>
<path d="M0 0 C0 25.08 0 50.16 0 76 C-16.83 76 -33.66 76 -51 76 C-51.185625 68.36875 -51.37125 60.7375 -51.5625 52.875 C-51.64443604 50.47589355 -51.72637207 48.07678711 -51.81079102 45.60498047 C-51.8370888 43.69242884 -51.86001992 41.77982668 -51.87890625 39.8671875 C-51.92494995 38.88306885 -51.97099365 37.8989502 -52.01843262 36.88500977 C-52.02623189 30.04764307 -52.02623189 30.04764307 -49.1577301 27.11929321 C-46.83825967 25.54484094 -44.50795103 24.24891672 -42 23 C-40.91823486 22.36271973 -39.83646973 21.72543945 -38.72192383 21.06884766 C-37.72700928 20.52276855 -36.73209473 19.97668945 -35.70703125 19.4140625 C-34.58796387 18.79668213 -33.46889648 18.17930176 -32.31591797 17.54321289 C-30.58172607 16.59369751 -30.58172607 16.59369751 -28.8125 15.625 C-26.41446274 14.30501936 -24.01780973 12.98253404 -21.62109375 11.66015625 C-20.4801123 11.03125488 -19.33913086 10.40235352 -18.16357422 9.75439453 C-13.14407772 6.97077809 -8.172581 4.10776007 -3.2109375 1.22265625 C-1 0 -1 0 0 0 Z " fill="#FC8800" transform="translate(100,24)"/>
<path d="M0 0 C33 0 66 0 100 0 C100 3.3 100 6.6 100 10 C99.30253662 10.38631592 98.60507324 10.77263184 97.88647461 11.1706543 C95.18124346 12.66967504 92.47669021 14.16991293 89.77227783 15.67041016 C87.9366964 16.68794547 86.09999004 17.70342802 84.26318359 18.71875 C78.22604613 22.06114986 72.21614292 25.43708918 66.26171875 28.92578125 C65.22474854 29.5288208 64.18777832 30.13186035 63.11938477 30.75317383 C61.15583889 31.8986423 59.19898284 33.0556732 57.24975586 34.2253418 C55.9234314 34.99551636 55.9234314 34.99551636 54.5703125 35.78125 C53.80477051 36.23564453 53.03922852 36.69003906 52.25048828 37.15820312 C49.37216725 38.23484132 47.90917042 37.91476866 45 37 C42.86962891 35.99121094 42.86962891 35.99121094 40.7265625 34.734375 C39.91219727 34.26233643 39.09783203 33.79029785 38.25878906 33.30395508 C37.38963867 32.7911499 36.52048828 32.27834473 35.625 31.75 C33.75825216 30.66460807 31.89104684 29.58000265 30.0234375 28.49609375 C28.55922363 27.64313721 28.55922363 27.64313721 27.06542969 26.77294922 C20.81176475 23.15602386 14.50226463 19.63685219 8.20166016 16.10253906 C7.27401855 15.58014648 6.34637695 15.05775391 5.390625 14.51953125 C4.1536084 13.82500854 4.1536084 13.82500854 2.89160156 13.11645508 C1 12 1 12 0 11 C0 7.37 0 3.74 0 0 Z " fill="#FDFD85" transform="translate(0,0)"/>
<path d="M0 0 C0 25.08 0 50.16 0 76 C-16.83 76 -33.66 76 -51 76 C-51 73.69 -51 71.38 -51 69 C-39.78 69 -28.56 69 -17 69 C-17.1094395 61.60934125 -17.21976421 54.2187979 -17.33904266 46.82830811 C-17.39431867 43.386873 -17.44787695 39.9454306 -17.49731445 36.50390625 C-17.55408707 32.55720111 -17.61862398 28.61064158 -17.68359375 24.6640625 C-17.70030624 23.42757965 -17.71701874 22.1910968 -17.73423767 20.91714478 C-17.7641555 19.20559708 -17.7641555 19.20559708 -17.79467773 17.45947266 C-17.81799416 15.94723618 -17.81799416 15.94723618 -17.84178162 14.40444946 C-17.8448655 11.98733556 -17.8448655 11.98733556 -19 10 C-16.02273264 8.32992313 -13.0428803 6.66451428 -10.0625 5 C-9.21236328 4.52304687 -8.36222656 4.04609375 -7.48632812 3.5546875 C-6.67744141 3.10351562 -5.86855469 2.65234375 -5.03515625 2.1875 C-3.91185913 1.55908203 -3.91185913 1.55908203 -2.76586914 0.91796875 C-1 0 -1 0 0 0 Z " fill="#E00203" transform="translate(100,24)"/>
<path d="M0 0 C4.54081244 1.94606248 8.66425027 3.81347237 12.9375 6.1875 C13.89527344 6.71730469 14.85304688 7.24710938 15.83984375 7.79296875 C16.55269531 8.19128906 17.26554687 8.58960938 18 9 C17.34 9.66 16.68 10.32 16 11 C15.66756372 13.7510296 15.66756372 13.7510296 15.68115234 17.01025391 C15.66128265 18.27141022 15.64141296 19.53256653 15.62094116 20.8319397 C15.60906386 22.21347885 15.59740105 23.59501986 15.5859375 24.9765625 C15.5672329 26.38619124 15.54766002 27.79580871 15.5272522 29.20541382 C15.47584988 32.91745362 15.43626781 36.62952977 15.39910889 40.34173584 C15.35911978 44.12895759 15.30800429 47.91602715 15.2578125 51.703125 C15.16095733 59.13532036 15.07761171 66.56757421 15 74 C10.05 74 5.1 74 0 74 C0 49.58 0 25.16 0 0 Z " fill="#6F098B" transform="translate(0,26)"/>
<path d="M0 0 C3.69515357 0.46427919 6.47197659 1.59771836 9.6875 3.4375 C10.45449219 3.86933594 11.22148437 4.30117188 12.01171875 4.74609375 C14 6 14 6 16 8 C16.24050903 10.3664856 16.24050903 10.3664856 16.22705078 13.36767578 C16.22689972 14.48868683 16.22674866 15.60969788 16.22659302 16.76467896 C16.21627045 17.97928802 16.20594788 19.19389709 16.1953125 20.4453125 C16.1924826 21.68546112 16.18965271 22.92560974 16.18673706 24.20333862 C16.17742174 27.50124633 16.1594489 30.79895972 16.1373291 34.09680176 C16.11687474 37.4616457 16.10773623 40.82651807 16.09765625 44.19140625 C16.07556515 50.79435706 16.04101939 57.39714074 16 64 C10.39 64 4.78 64 -1 64 C-1.02255425 55.8030903 -1.04091696 47.60620455 -1.05181217 39.40927219 C-1.0570402 35.60348423 -1.06413638 31.79771852 -1.07543945 27.99194336 C-1.0862712 24.32207456 -1.09227744 20.65222722 -1.09487724 16.98234367 C-1.09673097 15.57925008 -1.1003506 14.17615771 -1.10573006 12.7730732 C-1.11294419 10.8143032 -1.11340809 8.8555118 -1.11352539 6.89672852 C-1.115746 5.77976089 -1.11796661 4.66279327 -1.12025452 3.51197815 C-1 1 -1 1 0 0 Z " fill="#004DF8" transform="translate(16,36)"/>
<path d="M0 0 C0 15.51 0 31.02 0 47 C-5.61 47 -11.22 47 -17 47 C-17.22307809 41.41351453 -17.38605356 35.82963649 -17.49438477 30.23974609 C-17.53955043 28.34019813 -17.60090169 26.44096146 -17.67895508 24.54248047 C-18.3117193 8.75232503 -18.3117193 8.75232503 -15.09716797 4.45800781 C-12.74970024 2.87506687 -10.67344859 1.90444749 -8 1 C-6.98788452 0.41677979 -6.98788452 0.41677979 -5.95532227 -0.17822266 C-4 -1 -4 -1 0 0 Z " fill="#FCEA01" transform="translate(66,46)"/>
<path d="M0 0 C0 2.31 0 4.62 0 7 C-12.59166754 14.23252854 -25.2221907 21.39073455 -37.90991211 28.45361328 C-38.92190674 29.01806152 -39.93390137 29.58250977 -40.9765625 30.1640625 C-41.87455566 30.66373535 -42.77254883 31.1634082 -43.69775391 31.67822266 C-45.506468 32.71665087 -47.26466544 33.84311029 -49 35 C-53.92603477 35.84397099 -57.24057723 33.39683115 -61.25 30.875 C-62.74698918 29.96333409 -64.24581039 29.05467212 -65.74609375 28.1484375 C-66.57093262 27.64924805 -67.39577148 27.15005859 -68.24560547 26.63574219 C-73.5436614 23.48940513 -78.93206942 20.5025071 -84.3125 17.5 C-85.40401367 16.88882324 -86.49552734 16.27764648 -87.62011719 15.64794922 C-93.75079672 12.21201155 -93.75079672 12.21201155 -100 9 C-100 6.36 -100 3.72 -100 1 C-91.9611464 4.78604073 -84.22922654 9.06210243 -76.5 13.4375 C-75.49525635 14.00509033 -74.4905127 14.57268066 -73.45532227 15.1574707 C-69.27656616 17.52854918 -65.10859486 19.90391364 -61.0234375 22.43359375 C-59.46496094 23.39458984 -59.46496094 23.39458984 -57.875 24.375 C-57.02679688 24.91898438 -56.17859375 25.46296875 -55.3046875 26.0234375 C-52.33383497 27.28227332 -51.09362706 26.8527234 -48 26 C-46.05795413 25.06888212 -44.15085705 24.06318851 -42.2734375 23.0078125 C-41.16734131 22.3897876 -40.06124512 21.7717627 -38.92163086 21.13500977 C-37.73933779 20.4651526 -36.55712911 19.79514647 -35.375 19.125 C-34.16508152 18.44602224 -32.95487424 17.76755887 -31.74438477 17.08959961 C-23.63105617 12.53508721 -15.5607555 7.90408924 -7.56201172 3.15087891 C-2.21217011 0 -2.21217011 0 0 0 Z " fill="#583819" transform="translate(100,10)"/>
<path d="M0 0 C0 2.31 0 4.62 0 7 C-0.69746338 7.38631592 -1.39492676 7.77263184 -2.11352539 8.1706543 C-4.81875654 9.66967504 -7.52330979 11.16991293 -10.22772217 12.67041016 C-12.0633036 13.68794547 -13.90000996 14.70342802 -15.73681641 15.71875 C-21.77395387 19.06114986 -27.78385708 22.43708918 -33.73828125 25.92578125 C-34.77525146 26.5288208 -35.81222168 27.13186035 -36.88061523 27.75317383 C-38.84416111 28.8986423 -40.80101716 30.0556732 -42.75024414 31.2253418 C-44.0765686 31.99551636 -44.0765686 31.99551636 -45.4296875 32.78125 C-46.19522949 33.23564453 -46.96077148 33.69003906 -47.74951172 34.15820312 C-50.62783275 35.23484132 -52.09082958 34.91476866 -55 34 C-57.13037109 32.99121094 -57.13037109 32.99121094 -59.2734375 31.734375 C-60.08780273 31.26233643 -60.90216797 30.79029785 -61.74121094 30.30395508 C-62.61036133 29.7911499 -63.47951172 29.27834473 -64.375 28.75 C-66.24174784 27.66460807 -68.10895316 26.58000265 -69.9765625 25.49609375 C-71.44077637 24.64313721 -71.44077637 24.64313721 -72.93457031 23.77294922 C-79.18823525 20.15602386 -85.49773537 16.63685219 -91.79833984 13.10253906 C-92.72598145 12.58014648 -93.65362305 12.05775391 -94.609375 11.51953125 C-95.8463916 10.82500854 -95.8463916 10.82500854 -97.10839844 10.11645508 C-99 9 -99 9 -100 8 C-100.04092937 5.66702567 -100.04241723 3.33294775 -100 1 C-89.03245596 6.27434933 -78.44108651 12.07042136 -67.91015625 18.16796875 C-67.0917627 18.6376709 -66.27336914 19.10737305 -65.43017578 19.59130859 C-63.80327583 20.53436794 -62.18695386 21.49590398 -60.58154297 22.47509766 C-54.69881837 26.04811004 -54.69881837 26.04811004 -48 26 C-44.74947078 24.52554929 -41.73710721 22.72394497 -38.6875 20.875 C-36.83148073 19.78257626 -34.97467326 18.69149085 -33.1171875 17.6015625 C-32.13459961 17.02051758 -31.15201172 16.43947266 -30.13964844 15.84082031 C-24.56951978 12.57497505 -18.94175682 9.41246728 -13.3125 6.25 C-11.67317505 5.31969971 -11.67317505 5.31969971 -10.00073242 4.37060547 C-8.98599854 3.79971191 -7.97126465 3.22881836 -6.92578125 2.640625 C-5.57093628 1.87540527 -5.57093628 1.87540527 -4.1887207 1.09472656 C-2 0 -2 0 0 0 Z " fill="#6FC6F7" transform="translate(100,3)"/>
<path d="M0 0 C0.43359375 3.21484375 0.43359375 3.21484375 0 7 C-2.36647177 8.98236769 -4.23652292 10.18547148 -6.9375 11.5625 C-7.67661621 11.96742676 -8.41573242 12.37235352 -9.17724609 12.78955078 C-10.83861546 13.69866559 -12.50604642 14.59675912 -14.17822266 15.48583984 C-18.41903529 17.76145154 -22.60295016 20.13614755 -26.79516602 22.49975586 C-30.97846765 24.85564264 -35.17162331 27.19338232 -39.37207031 29.51855469 C-41.59245667 30.77025521 -43.75891273 32.07973305 -45.9296875 33.4140625 C-49.100469 35.0518962 -50.5224573 35.64148846 -54 35 C-56.7265625 33.6796875 -56.7265625 33.6796875 -59.625 31.875 C-63.39992368 29.57801614 -67.16373626 27.33015163 -71.0625 25.25 C-77.27218997 21.89931685 -83.35861964 18.33956286 -89.45141602 14.78222656 C-90.23959717 14.32299805 -91.02777832 13.86376953 -91.83984375 13.390625 C-92.54488037 12.97844727 -93.24991699 12.56626953 -93.97631836 12.14160156 C-95.9547964 11.02550031 -97.95953074 9.99747368 -100 9 C-100 6.69 -100 4.38 -100 2 C-96.33341804 2.69018013 -93.4757146 4.25268604 -90.23046875 6.0625 C-89.1007666 6.6908374 -87.97106445 7.3191748 -86.80712891 7.96655273 C-85.60055741 8.6443177 -84.39401494 9.32213436 -83.1875 10 C-81.96026615 10.68393081 -80.73288946 11.36760536 -79.50537109 12.05102539 C-71.81170488 16.34815861 -64.23763734 20.79782852 -56.8203125 25.55859375 C-53.7358384 27.1350078 -52.39746453 27.31279952 -49 27 C-46.58971791 26.02641736 -46.58971791 26.02641736 -44.21875 24.578125 C-43.30383789 24.05259033 -42.38892578 23.52705566 -41.44628906 22.9855957 C-40.47401367 22.41284912 -39.50173828 21.84010254 -38.5 21.25 C-37.49420898 20.66887451 -36.48841797 20.08774902 -35.45214844 19.48901367 C-33.35182347 18.27520442 -31.25387314 17.05727778 -29.15820312 15.83544922 C-24.2089342 12.95908838 -19.22710096 10.14031878 -14.25 7.3125 C-12.52518819 6.33092528 -10.80116097 5.34796991 -9.078125 4.36328125 C-8.00159668 3.74900269 -8.00159668 3.74900269 -6.90332031 3.12231445 C-1.60822275 0 -1.60822275 0 0 0 Z " fill="#040303" transform="translate(100,17)"/>
<path d="M0 0 C6.66056974 -0.50268451 10.15187086 0.65595201 15.6875 4.25 C17.16727203 5.15868766 18.64777709 6.06618236 20.12890625 6.97265625 C20.91023926 7.45879395 21.69157227 7.94493164 22.49658203 8.44580078 C27.00826992 11.24679601 31.55459295 13.98357345 36.125 16.6875 C37.00115967 17.22858398 37.87731934 17.76966797 38.7800293 18.32714844 C42.42096954 20.47287122 45.09800647 21.93263992 49.34765625 22.25 C55.05854038 20.29547281 60.1054205 17.33686056 65.3125 14.3125 C66.92801758 13.39307617 66.92801758 13.39307617 68.57617188 12.45507812 C79.37482124 7.02953839 79.37482124 7.02953839 89 0 C90.85287502 -0.07226502 92.70833878 -0.0838122 94.5625 -0.0625 C95.57441406 -0.05347656 96.58632812 -0.04445312 97.62890625 -0.03515625 C98.41136719 -0.02355469 99.19382812 -0.01195312 100 0 C100 0.99 100 1.98 100 3 C99.38294189 3.3309668 98.76588379 3.66193359 98.13012695 4.00292969 C86.74970832 10.11539555 75.40108643 16.27293583 64.1875 22.6875 C63.30553955 23.1918457 62.4235791 23.69619141 61.51489258 24.21582031 C58.28081041 26.07481865 55.10520966 27.92986023 52 30 C46.96610782 30.58020725 44.02268576 29.3083707 39.66796875 26.8515625 C39.07794067 26.52322418 38.4879126 26.19488586 37.88000488 25.8565979 C35.97502699 24.79210476 34.0811289 23.70953373 32.1875 22.625 C30.88364977 21.88823525 29.57936718 21.15223514 28.2746582 20.41699219 C25.69688799 18.9611171 23.12401753 17.49708241 20.5546875 16.02636719 C17.48912177 14.27347457 14.40474163 12.55704226 11.3125 10.8515625 C9.77012287 9.98563926 8.22838737 9.11857146 6.6875 8.25 C5.98971436 7.86924316 5.29192871 7.48848633 4.57299805 7.09619141 C2.69921875 6.015625 2.69921875 6.015625 0 4 C0 2.68 0 1.36 0 0 Z " fill="#FB6AB1" transform="translate(0,0)"/>
<path d="M0 0 C0 25.08 0 50.16 0 76 C-16.83 76 -33.66 76 -51 76 C-51 73.69 -51 71.38 -51 69 C-46.39591857 68.97493381 -41.79187846 68.95697027 -37.18774414 68.94506836 C-35.62751573 68.94009693 -34.06729183 68.93331743 -32.50708008 68.92456055 C-22.94397597 68.87230315 -13.52710662 69.06963079 -4 70 C-2.96346031 66.58395848 -2.86722824 63.44690522 -2.85473633 59.88623047 C-2.84835648 58.65170135 -2.84197662 57.41717224 -2.83540344 56.14523315 C-2.83387524 54.80255167 -2.83276102 53.45986966 -2.83203125 52.1171875 C-2.82881726 50.73764003 -2.82545308 49.3580929 -2.82194519 47.97854614 C-2.81596598 45.09197193 -2.81410421 42.20542762 -2.81469727 39.31884766 C-2.81479919 35.61528743 -2.80111051 31.91191762 -2.78392506 28.20840263 C-2.77282699 25.362021 -2.77077732 22.51568588 -2.77130699 19.66928482 C-2.77012496 18.30329859 -2.76569074 16.93731123 -2.75797462 15.57134628 C-2.74821312 13.66591599 -2.75230704 11.76042979 -2.75708008 9.85498047 C-2.75565506 8.77006317 -2.75423004 7.68514587 -2.75276184 6.56735229 C-2.74122249 3.83473136 -2.74122249 3.83473136 -5 2 C-1.125 0 -1.125 0 0 0 Z " fill="#A70A0B" transform="translate(100,24)"/>
<path d="M0 0 C8.85732358 -1.43956501 13.963304 1.9516521 21.14941406 6.78417969 C24.52633074 9.00278721 28.00363319 11.03932145 31.5 13.0625 C32.17047363 13.46847412 32.84094727 13.87444824 33.53173828 14.29272461 C37.20759924 16.45504362 37.20759924 16.45504362 41.3527832 16.796875 C44.49590874 15.85071971 47.04219144 14.47947502 49.88671875 12.83984375 C50.98951172 12.21142578 52.09230469 11.58300781 53.22851562 10.93554688 C54.36998047 10.27619141 55.51144531 9.61683594 56.6875 8.9375 C58.95933382 7.62888074 61.23461516 6.32682867 63.51171875 5.02734375 C64.51678467 4.44718506 65.52185059 3.86702637 66.55737305 3.26928711 C69 2 69 2 71 2 C71 1.34 71 0.68 71 0 C74.3 0 77.6 0 81 0 C77.96810818 3.3262724 74.89044778 5.37872573 70.94921875 7.53125 C70.37218704 7.84904419 69.79515533 8.16683838 69.20063782 8.4942627 C67.36639978 9.50267334 65.52717415 10.50154747 63.6875 11.5 C61.86368348 12.49849788 60.04092277 13.49889466 58.21853638 14.5 C56.48804027 15.44749415 54.75261313 16.38596459 53.01708984 17.32421875 C50.63122885 18.64939676 48.36679396 20.04593093 46.08203125 21.53125 C42.02504268 23.46461844 40.30559725 23.27708393 36 22 C32.5436447 20.36371516 29.28026747 18.46193686 26 16.5 C25.08387939 15.96334717 24.16775879 15.42669434 23.22387695 14.8737793 C20.47603868 13.25998474 17.73786004 11.63064832 15 10 C13.43151732 9.07852821 11.86254507 8.15788896 10.29296875 7.23828125 C8.92387748 6.43070668 7.55534742 5.62217959 6.1875 4.8125 C5.55392578 4.43867187 4.92035156 4.06484375 4.26757812 3.6796875 C2.8273793 2.815242 1.41047011 1.91214733 0 1 C0 0.67 0 0.34 0 0 Z " fill="#FEFAF8" transform="translate(8,0)"/>
<path d="M0 0 C1.98 0.66 3.96 1.32 6 2 C5.01 2.33 4.02 2.66 3 3 C3 24.12 3 45.24 3 67 C6.63 67 10.26 67 14 67 C15 68 15 68 15 74 C10.05 74 5.1 74 0 74 C0 49.58 0 25.16 0 0 Z " fill="#5B0968" transform="translate(0,26)"/>
<path d="M0 0 C1.9375 1.8125 1.9375 1.8125 3 4 C2.67 4.99 2.34 5.98 2 7 C5.27773504 6.24849977 5.27773504 6.24849977 7 3 C8.9453125 2.70703125 8.9453125 2.70703125 11.125 2.8125 C12.40375 2.874375 13.6825 2.93625 15 3 C11.88178054 6.43842782 8.62286682 8.5828188 4.5625 10.8125 C3.45003906 11.43769531 2.33757813 12.06289063 1.19140625 12.70703125 C-2.43279873 14.17534441 -3.39973044 14.37610303 -7 13 C-9.99358045 11.47586689 -12.87169196 9.79288249 -15.75 8.0625 C-16.52988281 7.60681641 -17.30976562 7.15113281 -18.11328125 6.68164062 C-23.86811514 3.26376971 -23.86811514 3.26376971 -25 1 C-21.04 1 -17.08 1 -13 1 C-12.67 3.31 -12.34 5.62 -12 8 C-10.35 8 -8.7 8 -7 8 C-7 7.34 -7 6.68 -7 6 C-7.66 6 -8.32 6 -9 6 C-9.33 5.01 -9.66 4.02 -10 3 C-6.7217397 -0.02608643 -4.42815603 -0.6595126 0 0 Z " fill="#FDFB36" transform="translate(52,4)"/>
<path d="M0 0 C11.22 0 22.44 0 34 0 C34 2.31 34 4.62 34 7 C22.78 7 11.56 7 0 7 C0 4.69 0 2.38 0 0 Z " fill="#9B8001" transform="translate(49,93)"/>
<path d="M0 0 C1.32 0.33 2.64 0.66 4 1 C4.04635629 9.01469833 4.08188589 17.02934057 4.10362434 25.04413986 C4.11405811 28.7658029 4.12820982 32.48737416 4.15087891 36.20898438 C4.1726219 39.80106762 4.18457169 43.39306263 4.18975449 46.9852066 C4.19344764 48.35512938 4.20065945 49.72504738 4.21146011 51.09493256 C4.22599349 53.01473779 4.22681708 54.93463196 4.22705078 56.85449219 C4.231492 57.94703308 4.23593323 59.03957397 4.24050903 60.16522217 C4 63 4 63 2 67 C-2.29 67 -6.58 67 -11 67 C-11 66.34 -11 65.68 -11 65 C-7.04 65 -3.08 65 1 65 C0.67 43.55 0.34 22.1 0 0 Z " fill="#BD0102" transform="translate(94,27)"/>
<path d="M0 0 C1.32 0.33 2.64 0.66 4 1 C3.67 21.46 3.34 41.92 3 63 C5.64 63 8.28 63 11 63 C11 63.33 11 63.66 11 64 C7.37 64 3.74 64 0 64 C0 42.88 0 21.76 0 0 Z " fill="#670678" transform="translate(3,29)"/>
<path d="M0 0 C3.96 0 7.92 0 12 0 C12.33 2.31 12.66 4.62 13 7 C19.25307239 7.83288874 24.76817361 8.03863773 31 7 C31 7.66 31 8.32 31 9 C29.78074525 9.70492893 28.5489894 10.38825901 27.3125 11.0625 C26.62800781 11.44535156 25.94351563 11.82820313 25.23828125 12.22265625 C22.23811508 13.26459878 21.03413835 13.01564688 18 12 C15.0007921 10.48722373 12.1280257 8.79271275 9.25 7.0625 C8.47011719 6.60681641 7.69023438 6.15113281 6.88671875 5.68164062 C1.13188486 2.26376971 1.13188486 2.26376971 0 0 Z " fill="#FDFD1C" transform="translate(27,5)"/>
<path d="M0 0 C5.61 0 11.22 0 17 0 C17 1.98 17 3.96 17 6 C11.39 6 5.78 6 0 6 C0 4.02 0 2.04 0 0 Z " fill="#012B89" transform="translate(15,94)"/>
<path d="M0 0 C5.61 0 11.22 0 17 0 C17 1.98 17 3.96 17 6 C11.39 6 5.78 6 0 6 C0 4.02 0 2.04 0 0 Z " fill="#034816" transform="translate(32,94)"/>
<path d="M0 0 C4.95 0 9.9 0 15 0 C15 1.98 15 3.96 15 6 C10.05 6 5.1 6 0 6 C0 4.02 0 2.04 0 0 Z " fill="#40064C" transform="translate(0,94)"/>
<path d="M0 0 C5.61 0 11.22 0 17 0 C17 1.65 17 3.3 17 5 C11.39 5 5.78 5 0 5 C0 3.35 0 1.7 0 0 Z " fill="#720101" transform="translate(83,95)"/>
<path d="M0 0 C5.61 0 11.22 0 17 0 C17 1.65 17 3.3 17 5 C11.39 5 5.78 5 0 5 C0 3.35 0 1.7 0 0 Z " fill="#844801" transform="translate(66,95)"/>
<path d="M0 0 C0.70189453 0.01353516 1.40378906 0.02707031 2.12695312 0.04101562 C3.85579829 0.07629818 5.58424765 0.13010417 7.3125 0.1875 C8.4375 2.5 8.4375 2.5 9.3125 5.1875 C8.3225 6.6725 8.3225 6.6725 7.3125 8.1875 C6.3225 8.1875 5.3325 8.1875 4.3125 8.1875 C4.168125 7.383125 4.02375 6.57875 3.875 5.75 C3.57114751 3.26646294 3.57114751 3.26646294 2.3125 2.1875 C-1.90150035 1.76130299 -1.90150035 1.76130299 -5.5625 3.5625 C-6.87723666 5.13216014 -6.87723666 5.13216014 -6.6875 7.1875 C-6.0275 7.1875 -5.3675 7.1875 -4.6875 7.1875 C-4.6875 7.8475 -4.6875 8.5075 -4.6875 9.1875 C-6.3375 9.1875 -7.9875 9.1875 -9.6875 9.1875 C-11.01788348 3.74502212 -11.01788348 3.74502212 -9.6875 1.5 C-6.63085238 -0.505925 -3.52293259 -0.12828606 0 0 Z " fill="#D4B46A" transform="translate(49.6875,2.8125)"/>
<path d="M0 0 C0.98484375 0.02707031 1.9696875 0.05414062 2.984375 0.08203125 C3.73203125 0.11683594 4.4796875 0.15164063 5.25 0.1875 C5.25 1.1775 5.25 2.1675 5.25 3.1875 C-0.64895571 7.2324982 -6.82303328 6.46498976 -13.75 6.1875 C-12.41666667 5.1875 -11.08333333 4.1875 -9.75 3.1875 C-9.12609375 2.63449219 -8.5021875 2.08148438 -7.859375 1.51171875 C-5.09713046 -0.22235699 -3.2313817 -0.11540649 0 0 Z " fill="#FEADD3" transform="translate(94.75,-0.1875)"/>
<path d="M0 0 C1.9453125 -0.29296875 1.9453125 -0.29296875 4.125 -0.1875 C5.40375 -0.125625 6.6825 -0.06375 8 0 C3.73952506 4.73386104 -0.29359804 6.15711358 -6.5625 6.75 C-7.95662109 6.89695312 -7.95662109 6.89695312 -9.37890625 7.046875 C-12.17347934 6.99689754 -13.64095632 6.44317966 -16 5 C-15.34 5 -14.68 5 -14 5 C-13.67 4.34 -13.34 3.68 -13 3 C-10.35139573 2.40644386 -7.70802678 2.25790731 -5 2 C-5 2.66 -5 3.32 -5 4 C-1.72226496 3.24849977 -1.72226496 3.24849977 0 0 Z " fill="#F0E519" transform="translate(59,7)"/>
<path d="M0 0 C5.61 0 11.22 0 17 0 C13 4 13 4 10 5 C7.73828125 4.87890625 7.73828125 4.87890625 5.3125 4.5625 C4.50425781 4.46066406 3.69601563 4.35882812 2.86328125 4.25390625 C2.24839844 4.17011719 1.63351563 4.08632812 1 4 C0.67 2.68 0.34 1.36 0 0 Z " fill="#FEFE6C" transform="translate(57,3)"/>
<path d="M0 0 C6.75383934 -0.60302137 10.70337441 0.7035351 16 5 C16 5.33 16 5.66 16 6 C14.39667209 6.08121924 12.79215974 6.13929134 11.1875 6.1875 C10.29417969 6.22230469 9.40085937 6.25710937 8.48046875 6.29296875 C5.51598947 5.9428334 4.91809922 5.18190656 3 3 C2.01 2.67 1.02 2.34 0 2 C0 1.34 0 0.68 0 0 Z " fill="#FE9BCA" transform="translate(0,0)"/>
<path d="M0 0 C2.86724686 0.57344937 3.8614515 0.8614515 6 3 C8.82673737 3.38883196 8.82673737 3.38883196 12 3.5 C17.77777778 3.77777778 17.77777778 3.77777778 20 6 C12.65174846 7.23695568 7.5651211 7.7484294 1.328125 3.32421875 C0.88984375 2.88722656 0.4515625 2.45023437 0 2 C0 1.34 0 0.68 0 0 Z " fill="#F781BD" transform="translate(0,2)"/>
<path d="M0 0 C5.28 0 10.56 0 16 0 C15.67 0.99 15.34 1.98 15 3 C10.38 3 5.76 3 1 3 C0.67 2.01 0.34 1.02 0 0 Z " fill="#FEFD6A" transform="translate(25,3)"/>
<path d="M0 0 C5.28 0 10.56 0 16 0 C15.67 0.99 15.34 1.98 15 3 C10.05 2.67 5.1 2.34 0 2 C0 1.34 0 0.68 0 0 Z " fill="#7D0102" transform="translate(83,95)"/>
<path d="M0 0 C0 0.99 0 1.98 0 3 C-5.89895571 7.0449982 -12.07303328 6.27748976 -19 6 C-19 5.67 -19 5.34 -19 5 C-15.04 5 -11.08 5 -7 5 C-7 4.34 -7 3.68 -7 3 C-6.01 3 -5.02 3 -4 3 C-4 2.34 -4 1.68 -4 1 C-2 -0 -2 -0 0 0 Z " fill="#F997C9" transform="translate(100,0)"/>
<path d="M0 0 C0 1.65 0 3.3 0 5 C-1.98 5.99 -3.96 6.98 -6 8 C-6.25 5.6875 -6.25 5.6875 -6 3 C-3.95575462 1.02389614 -2.8823175 0 0 0 Z " fill="#5DABD3" transform="translate(100,5)"/>
<path d="M0 0 C2.64 0 5.28 0 8 0 C4.67692308 3.93846154 4.67692308 3.93846154 1.25 4.25 C0.5075 4.1675 -0.235 4.085 -1 4 C-0.67 2.68 -0.34 1.36 0 0 Z " fill="#FEFD13" transform="translate(59,7)"/>
<path d="M0 0 C3.96 0 7.92 0 12 0 C12 0.66 12 1.32 12 2 C9.69 2 7.38 2 5 2 C4.67 2.66 4.34 3.32 4 4 C2.68 2.68 1.36 1.36 0 0 Z " fill="#FFFE41" transform="translate(27,5)"/>
<path d="M0 0 C1.09054688 0.02320313 2.18109375 0.04640625 3.3046875 0.0703125 C4.40039062 0.08835937 5.49609375 0.10640625 6.625 0.125 C7.46804687 0.14820313 8.31109375 0.17140625 9.1796875 0.1953125 C8.03515625 1.71484375 8.03515625 1.71484375 6.1796875 3.1953125 C3.48046875 3.26953125 3.48046875 3.26953125 0.4921875 2.8828125 C-0.99861328 2.70298828 -0.99861328 2.70298828 -2.51953125 2.51953125 C-3.27878906 2.41253906 -4.03804688 2.30554688 -4.8203125 2.1953125 C-2.8203125 0.1953125 -2.8203125 0.1953125 0 0 Z " fill="#FA7EBB" transform="translate(82.8203125,5.8046875)"/>
<path d="M0 0 C4.29 0 8.58 0 13 0 C10 3 10 3 7.51953125 3.07421875 C6.62621094 2.94660156 5.73289062 2.81898437 4.8125 2.6875 C3.46091797 2.50767578 3.46091797 2.50767578 2.08203125 2.32421875 C1.05142578 2.16373047 1.05142578 2.16373047 0 2 C0 1.34 0 0.68 0 0 Z " fill="#FEFD42" transform="translate(58,5)"/>
<path d="M0 0 C2.31 0 4.62 0 7 0 C7.33 1.32 7.66 2.64 8 4 C5.69 3.67 3.38 3.34 1 3 C0.67 2.01 0.34 1.02 0 0 Z " fill="#FEFE10" transform="translate(32,7)"/>
<path d="M0 0 C0.33 0 0.66 0 1 0 C1 1.65 1 3.3 1 5 C-4.61 5 -10.22 5 -16 5 C-16 4.67 -16 4.34 -16 4 C-15.01257813 3.96261719 -14.02515625 3.92523438 -13.0078125 3.88671875 C-11.72648437 3.82097656 -10.44515625 3.75523438 -9.125 3.6875 C-7.84882812 3.62949219 -6.57265625 3.57148437 -5.2578125 3.51171875 C-4.18273437 3.34285156 -3.10765625 3.17398438 -2 3 C-1.34 2.01 -0.68 1.02 0 0 Z " fill="#740B0B" transform="translate(99,95)"/>
<path d="M0 0 C3.3 0 6.6 0 10 0 C8.515 1.485 8.515 1.485 7 3 C3.3125 2.6875 3.3125 2.6875 0 2 C0 1.34 0 0.68 0 0 Z " fill="#FEFE06" transform="translate(44,8)"/>
<path d="M0 0 C1.98 0.99 1.98 0.99 4 2 C3.67 3.98 3.34 5.96 3 8 C2.01 8 1.02 8 0 8 C0 5.36 0 2.72 0 0 Z " fill="#472F18" transform="translate(0,11)"/>
<path d="M0 0 C0.66 0 1.32 0 2 0 C2 2.31 2 4.62 2 7 C1.01 7.33 0.02 7.66 -1 8 C-1.125 2.25 -1.125 2.25 0 0 Z " fill="#49311A" transform="translate(98,10)"/>
<path d="M0 0 C0.99 0.33 1.98 0.66 3 1 C3.33 2.98 3.66 4.96 4 7 C2.68 6.34 1.36 5.68 0 5 C0 3.35 0 1.7 0 0 Z " fill="#579FC5" transform="translate(0,6)"/>
<path d="M0 0 C3.82097239 0.53069061 6.06171403 1.49701566 9 4 C6.1875 4.25 6.1875 4.25 3 4 C1.125 2 1.125 2 0 0 Z " fill="#FEB3D6" transform="translate(4,0)"/>
<path d="M0 0 C6.75 0.75 6.75 0.75 9 3 C9 3.66 9 4.32 9 5 C5.54074837 3.7508258 2.85306797 2.32472205 0 0 Z " fill="#FEFE39" transform="translate(36,11)"/>
<path d="M0 0 C1.98 0.495 1.98 0.495 4 1 C3.34 2.32 2.68 3.64 2 5 C1.01 5 0.02 5 -1 5 C-0.67 3.35 -0.34 1.7 0 0 Z " fill="#BB8756" transform="translate(55,6)"/>
</svg>
